<svg width="120" height="40" viewBox="0 0 120 40" fill="none" xmlns="http://www.w3.org/2000/svg">
<path d="M7.70569 39.998C7.39531 39.998 7.09306 39.9939 6.78573 39.9878C6.14798 39.979 5.51182 39.9217 4.88271 39.8164C4.29523 39.712 3.727 39.5186 3.19748 39.243C2.66943 38.968 2.18932 38.609 1.77581 38.18C1.35331 37.7528 1.00275 37.2598 0.737801 36.7201C0.467682 36.1734 0.281063 35.5891 0.184196 34.9867C0.079647 34.3382 0.0231821 33.6828 0.0152648 33.0259C0.00814124 32.8055 0 32.072 0 32.072V7.91471C0 7.91471 0.00915889 7.19241 0.0152648 6.98021C0.0223884 6.32422 0.0793771 5.66925 0.183178 5.02142C0.280174 4.41784 0.466778 3.83221 0.736783 3.28402C1.00137 2.74332 1.35043 2.24954 1.7697 1.82208C2.18615 1.39258 2.66767 1.03175 3.19646 0.752908C3.72494 0.478463 4.29225 0.286822 4.87864 0.184656C5.50959 0.0785553 6.14868 0.0214242 6.78777 0.0122424L7.70569 0H112.289L113.218 0.0132626C113.852 0.0211494 114.484 0.07811 115.109 0.183636C115.7 0.285656 116.274 0.479494 116.81 0.755968C117.872 1.32167 118.731 2.20633 119.267 3.28606C119.532 3.82983 119.716 4.41134 119.812 5.0102C119.918 5.66313 119.977 6.3232 119.989 6.98429C119.992 7.28015 119.992 7.59845 119.992 7.91471C120 8.30749 120 8.67986 120 9.05733V30.9416C120 31.3222 120 31.6925 119.992 32.0659C119.992 32.4067 119.992 32.7188 119.988 33.0382C119.976 33.6876 119.918 34.3354 119.815 34.9765C119.72 35.5831 119.535 36.1719 119.265 36.7231C118.998 37.2571 118.649 37.7459 118.231 38.1718C117.817 38.6031 117.336 38.9642 116.807 39.241C116.274 39.5188 115.701 39.7129 115.109 39.8164C114.48 39.9214 113.844 39.9796 113.207 39.9867C112.909 39.9939 112.597 39.998 112.294 39.998L111.191 40L7.70569 39.998Z" fill="black"/>
<path d="M24.3179 20.3134C24.3402 18.5393 25.2449 16.9008 26.7155 15.9714C26.2636 15.3015 25.6603 14.748 24.9547 14.356C24.2491 13.9641 23.4612 13.7447 22.655 13.7158C20.9453 13.5311 19.2886 14.7666 18.4175 14.7666C17.5301 14.7666 16.1888 13.7341 14.7458 13.7647C12.8458 13.827 11.1178 14.9104 10.1938 16.6172C8.22565 20.1185 9.69413 25.2644 11.5788 28.0944C12.5222 29.4809 13.6243 31.0285 15.0674 30.9735C16.4788 30.9133 17.006 30.0492 18.7106 30.0492C20.3978 30.0492 20.8924 30.9735 22.364 30.9388C23.8792 30.9133 24.8328 29.5472 25.7426 28.1475C26.4226 27.1565 26.9444 26.0655 27.2894 24.9135C25.4892 24.132 24.3199 22.3211 24.3179 20.3134ZM21.5376 11.8539C22.3663 10.8267 22.7722 9.5209 22.6723 8.20361C21.4032 8.34362 20.2354 8.96439 19.4077 9.93897C18.578 10.9143 18.1603 12.1755 18.2435 13.4546C18.8783 13.4593 19.5057 13.3174 20.077 13.0398C20.6483 12.7622 21.1481 12.3564 21.5376 11.8539Z" fill="white"/>
<path d="M42.1605 27.4648H37.3449L36.1879 30.9743H34.1475L38.7106 17.9892H40.8304L45.3926 30.9754H43.3176L42.1615 27.4659L42.1605 27.4648ZM37.8426 25.8458H41.6608L39.7782 20.149H39.7263L37.8436 25.8458H37.8426ZM55.2455 26.2416C55.2455 29.1839 53.7129 31.0743 51.3998 31.0743C50.8096 31.1029 50.2234 30.9623 49.7101 30.6688C49.1967 30.3754 48.7775 29.9413 48.5015 29.4175H48.4577V34.1063H46.5649V21.5069H48.3967V23.0821H48.4303C48.7197 22.5607 49.1463 22.129 49.6637 21.8339C50.181 21.5389 50.7692 21.3919 51.3642 21.4089C53.7027 21.4089 55.2445 23.3075 55.2445 26.2416H55.2455ZM53.3018 26.2416C53.3018 24.3247 52.337 23.0647 50.8665 23.0647C49.4215 23.0647 48.4496 24.3512 48.4496 26.2416C48.4496 28.1494 49.4215 29.4267 50.8665 29.4267C52.337 29.4267 53.3018 28.1759 53.3018 26.2416ZM65.3865 26.2416C65.3865 29.1839 63.8539 31.0743 61.5407 31.0743C60.9505 31.1029 60.3644 30.9623 59.851 30.6688C59.3377 30.3754 58.9185 29.9413 58.6425 29.4175H58.5987V34.1063H56.7069V21.5069H58.5376V23.0821H58.5722C58.8617 22.5607 59.2883 22.129 59.8056 21.8339C60.323 21.5389 60.9112 21.3919 61.5061 21.4089C63.8447 21.4089 65.3865 23.3075 65.3865 26.2416ZM63.4427 26.2416C63.4427 24.3247 62.478 23.0647 61.0075 23.0647C59.5624 23.0647 58.5905 24.3512 58.5905 26.2416C58.5905 28.1494 59.5624 29.4267 61.0075 29.4267C62.478 29.4267 63.4417 28.1759 63.4417 26.2416H63.4427ZM72.0877 27.3567C72.2282 28.6442 73.4453 29.4899 75.1102 29.4899C76.7038 29.4899 77.8507 28.6442 77.8507 27.4832C77.8507 26.4753 77.1587 25.8713 75.5203 25.4581L73.8829 25.0531C71.5626 24.4767 70.4849 23.3616 70.4849 21.5518C70.4849 19.3114 72.3849 17.7729 75.0837 17.7729C77.754 17.7729 79.5848 19.3114 79.6459 21.5518H77.7367C77.6228 20.2561 76.5807 19.4736 75.0562 19.4736C73.5328 19.4736 72.4907 20.2653 72.4907 21.4171C72.4907 22.3353 73.1563 22.876 74.7855 23.2892L76.1777 23.6401C78.7707 24.2706 79.8474 25.3408 79.8474 27.2404C79.8474 29.6695 77.9647 31.1916 74.9697 31.1916C72.1671 31.1916 70.2743 29.7052 70.1521 27.3557L72.0877 27.3567ZM83.9292 19.2665V21.5069H85.6816V23.0464H83.9292V28.2657C83.9292 29.0768 84.2803 29.4542 85.0506 29.4542C85.2582 29.4502 85.4658 29.4359 85.6724 29.4093V30.9396C85.3264 31.006 84.9743 31.0355 84.6222 31.0294C82.7568 31.0294 82.0292 30.3092 82.0292 28.4728V23.0453H80.69V21.5069H82.0292V19.2665H83.9292ZM86.6962 26.2416C86.6962 23.2626 88.4038 21.3906 91.066 21.3906C93.7374 21.3906 95.4368 23.2626 95.4368 26.2416C95.4368 29.2288 93.7465 31.0927 91.066 31.0927C88.3865 31.0927 86.6962 29.2288 86.6962 26.2416ZM93.5094 26.2416C93.5094 24.1982 92.5986 22.9923 91.066 22.9923C89.5334 22.9923 88.6236 24.2073 88.6236 26.2416C88.6236 28.2922 89.5334 29.4899 91.066 29.4899C92.5986 29.4899 93.5094 28.2932 93.5094 26.2416ZM96.9959 21.5069H98.8002V23.1188H98.8439C99.0953 22.0813 100.02 21.3671 101.059 21.4079C101.278 21.4071 101.495 21.4314 101.708 21.4804V23.2984C101.433 23.2121 101.146 23.1724 100.858 23.181C100.582 23.1703 100.307 23.2205 100.052 23.3283C99.7979 23.436 99.5701 23.5985 99.3853 23.8044C99.1972 24.0134 99.0555 24.2601 98.9695 24.5281C98.8836 24.7961 98.8553 25.0794 98.8867 25.3592V30.9743H96.9959V21.5069ZM110.427 28.1943C110.173 29.9123 108.544 31.0917 106.46 31.0917C103.78 31.0917 102.116 29.2471 102.116 26.2865C102.116 23.3177 103.789 21.3906 106.38 21.3906C108.93 21.3906 110.532 23.1902 110.532 26.0611V26.7262H104.025V26.8446C103.964 27.5485 104.201 28.2463 104.676 28.7595C104.908 29.0118 105.191 29.2108 105.506 29.3431C105.822 29.4753 106.162 29.5376 106.504 29.5257C106.955 29.5659 107.406 29.4576 107.79 29.2174C108.174 28.9771 108.469 28.6179 108.631 28.1943H110.427ZM104.034 25.3683H108.64C108.657 25.0564 108.612 24.7441 108.505 24.4503C108.399 24.1566 108.234 23.8876 108.021 23.6595C107.812 23.4351 107.557 23.2573 107.275 23.1378C106.992 23.0183 106.687 22.9597 106.381 22.9658C106.071 22.9645 105.765 23.0257 105.479 23.1457C105.194 23.2658 104.936 23.4423 104.72 23.6646C104.277 24.1205 104.031 24.7323 104.034 25.3683Z" fill="white"/>
<path d="M36.4982 10.8529H37.3103C37.4506 10.8707 37.593 10.8585 37.7282 10.8172C37.8634 10.7758 37.9884 10.7063 38.0949 10.6131C38.3127 10.4244 38.443 10.15 38.4552 9.8582C38.4552 9.2828 38.0339 8.91043 37.3195 8.91043C37.1758 8.89 37.0294 8.89928 36.8894 8.9377C36.7494 8.97613 36.6187 9.04288 36.5054 9.13386C36.2754 9.31749 36.1268 9.58988 36.0942 9.8888H35.2028C35.2333 9.34606 35.4826 8.84208 35.8887 8.49623C36.2957 8.14936 36.8249 7.99327 37.348 8.06366C38.5437 8.06366 39.3853 8.75128 39.3853 9.74087C39.3911 10.0693 39.285 10.3898 39.0844 10.6495C38.8838 10.9092 38.6008 11.0926 38.2822 11.1692V11.2416C39.0597 11.2773 39.6632 11.9516 39.6326 12.7515C39.5784 13.305 39.3072 13.8143 38.8785 14.1675C38.4511 14.5164 37.9067 14.6746 37.3653 14.6062C37.0961 14.6435 36.8221 14.6248 36.5604 14.5515C36.2987 14.4781 36.0548 14.3516 35.8439 14.1798C35.6298 14.0052 35.4525 13.7898 35.3222 13.5461C35.1919 13.3023 35.1111 13.035 35.0847 12.7596H35.9904C36.0444 13.3565 36.5776 13.7411 37.3643 13.7411C38.1519 13.7411 38.6669 13.3085 38.6669 12.6995C38.6669 12.0802 38.1825 11.6997 37.3368 11.6997H36.4982V10.8529ZM40.6625 13.1228C40.6625 12.2761 41.2772 11.7864 42.3661 11.717L43.6076 11.6435V11.2375C43.6076 10.7396 43.288 10.4591 42.6693 10.4591C42.1646 10.4591 41.8145 10.6499 41.7137 10.9825H40.8385C40.9301 10.1734 41.673 9.65518 42.711 9.65518C43.861 9.65518 44.5082 10.2428 44.5082 11.2365V14.4542H43.6371V13.7931H43.5659C43.2707 14.2757 42.7436 14.5583 42.189 14.5317C41.9958 14.552 41.8005 14.5306 41.6162 14.4691C41.4319 14.4075 41.2629 14.3071 41.1204 14.1747C40.9762 14.0402 40.8611 13.8775 40.7823 13.6965C40.7035 13.5156 40.6627 13.3203 40.6625 13.1228ZM43.6076 12.7209V12.3271L42.4882 12.4005C41.8572 12.4434 41.5713 12.6637 41.5713 13.079C41.5713 13.5034 41.9285 13.7503 42.421 13.7503C42.7121 13.7809 43.0031 13.688 43.226 13.4932C43.4499 13.2993 43.5872 13.0208 43.6076 12.7209ZM46.9089 10.5274V14.4552H46.0042V9.74598H49.0215V10.5274H46.9089ZM54.5026 12.0975C54.5026 13.5942 53.7658 14.5317 52.6098 14.5317C52.3236 14.5504 52.0382 14.4857 51.7879 14.3455C51.5377 14.2052 51.3332 13.9953 51.1993 13.7411H51.1281V16.0202H50.2224V9.74598H51.0935V10.5234H51.1617C51.4466 9.98266 52.0022 9.65212 52.6006 9.66742C53.7658 9.66742 54.5026 10.6019 54.5026 12.0975ZM53.5725 12.0975C53.5725 11.1028 53.1145 10.5019 52.3482 10.5019C51.587 10.5019 51.1108 11.1161 51.1108 12.1016C51.1108 13.083 51.586 13.6972 52.3442 13.6972C53.1135 13.6972 53.5725 13.0963 53.5725 12.0975ZM55.7065 16.1406V15.3408C55.8042 15.354 55.9029 15.3591 56.0016 15.3581C56.1965 15.3712 56.3893 15.3112 56.5426 15.1898C56.6958 15.0684 56.7986 14.8942 56.831 14.7011L56.8982 14.4715L55.2394 9.74598H56.2245L57.3734 13.486H57.4447L58.5895 9.74598H59.5492L57.8405 14.6491C57.4487 15.7947 57.0162 16.162 56.081 16.162C56.0057 16.162 55.791 16.1539 55.7065 16.1416V16.1406ZM60.2534 13.1177H61.154C61.2426 13.533 61.6211 13.7503 62.1513 13.7503C62.7528 13.7503 63.1222 13.4768 63.1222 13.0535C63.1222 12.5995 62.7904 12.3832 62.1503 12.3832H61.4644V11.6609H62.1391C62.6856 11.6609 62.9634 11.4446 62.9634 11.0508C62.9634 10.706 62.6947 10.4418 62.1391 10.4418C61.6333 10.4418 61.2639 10.6621 61.2049 11.0335H60.3328C60.4681 10.1459 61.2721 9.53173 62.1391 9.65518C63.228 9.65518 63.8508 10.1612 63.8508 10.9559C63.8578 11.1751 63.7901 11.3901 63.6587 11.5654C63.5273 11.7407 63.3402 11.8658 63.1283 11.92V11.9935C63.6442 12.0628 64.0299 12.5179 64.0238 13.0535C64.0238 13.9482 63.283 14.5409 62.1513 14.5409C61.1499 14.5409 60.3368 14.0696 60.2534 13.1177ZM65.3264 14.4542V9.74598H66.2219V12.9841H66.2942L68.4058 9.74598H69.3024V14.4542H68.4069V11.1987H68.3387L66.2219 14.4542H65.3264ZM74.2411 10.5274H72.798V14.4552H71.8923V10.5274H70.4493V9.74598H74.2411V10.5274ZM79.1126 13.183C78.8582 14.0706 78.0217 14.645 77.1261 14.545C76.8227 14.5525 76.5214 14.4927 76.2438 14.3698C75.9661 14.2468 75.7191 14.0638 75.5203 13.8339C75.3181 13.6003 75.1679 13.3261 75.0798 13.0296C74.9918 12.7332 74.9677 12.4214 75.0094 12.1149C74.9687 11.8076 74.993 11.4952 75.0807 11.198C75.1684 10.9008 75.3174 10.6254 75.5182 10.3897C75.7161 10.1576 75.9621 9.97159 76.2392 9.84471C76.5162 9.71783 76.8175 9.65315 77.1221 9.65518C78.3972 9.65518 79.1676 10.5499 79.1676 12.0282V12.3526H75.9314V12.4046C75.9019 12.7545 76.0179 13.1004 76.251 13.3575C76.483 13.6136 76.8107 13.7584 77.1516 13.7533C77.5943 13.8084 78.0237 13.5829 78.2405 13.182L79.1126 13.183ZM75.9314 11.666H78.2445C78.2564 11.5085 78.2359 11.3503 78.1842 11.2012C78.1326 11.052 78.0509 10.915 77.9443 10.7988C77.8394 10.6846 77.7115 10.5941 77.569 10.5332C77.4266 10.4723 77.2728 10.4426 77.118 10.4458C76.8025 10.4418 76.4972 10.5683 76.2733 10.7978C76.0495 11.0284 75.9273 11.3405 75.9314 11.665V11.666ZM82.9461 9.74598H85.012C85.9095 9.74598 86.4346 10.2122 86.4346 10.9427C86.438 11.172 86.3631 11.3956 86.2225 11.5764C86.0819 11.7573 85.8839 11.8846 85.6612 11.9374V12.0108C86.2169 12.0475 86.6473 12.525 86.6402 13.0963C86.6402 13.9186 86.0398 14.4542 85.0333 14.4542H82.9471V9.74598H82.9461ZM83.8427 10.4591V11.6782H84.7392C85.2857 11.6782 85.5472 11.462 85.5472 11.0641C85.5472 10.6968 85.3193 10.4591 84.84 10.4591H83.8427ZM83.8427 12.3618V13.7411H84.9153C85.4496 13.7411 85.7365 13.4983 85.7365 13.0535C85.7365 12.5821 85.4119 12.3618 84.8023 12.3618H83.8427Z" fill="white"/>
</svg>
