<svg width="136" height="40" viewBox="0 0 136 40" fill="none" xmlns="http://www.w3.org/2000/svg">
<path d="M8.73263 39.998C8.3819 39.998 8.03832 39.9939 7.68962 39.9878C6.96807 39.979 6.24792 39.9217 5.53408 39.8164C4.87369 39.7141 4.23058 39.5215 3.62292 39.244C3.03402 38.9748 2.49069 38.6158 2.01239 38.18C1.0706 37.3464 0.435601 36.2222 0.208602 34.9867C0.0903818 34.3399 0.0264209 33.6844 0.0173835 33.0269C0.00920301 32.8045 0 32.072 0 32.072V7.91573C0 7.91573 0.0102256 7.19139 0.0173835 6.98021C0.0255639 6.32422 0.0889624 5.66925 0.207579 5.02142C0.435151 3.7855 1.06742 2.65987 2.00523 1.82106C2.48728 1.38579 3.03271 1.02599 3.62292 0.753928C4.22911 0.476951 4.87093 0.285362 5.52998 0.184656C6.24577 0.0785554 6.9677 0.0214242 7.69269 0.0132626L8.73365 0H127.261L128.314 0.0132626C129.032 0.0214242 129.749 0.0775352 130.458 0.183636C131.128 0.285656 131.777 0.479494 132.384 0.755968C133.581 1.31504 134.555 2.20057 135.17 3.28606C135.47 3.82983 135.679 4.41134 135.787 5.0102C135.907 5.66313 135.973 6.3232 135.988 6.98429C135.991 7.28015 135.991 7.59845 135.991 7.91573C136 8.30749 136 8.68088 136 9.05733V30.9427C136 31.3222 136 31.6925 135.991 32.0669C135.991 32.4067 135.991 32.7178 135.987 33.0392C135.973 33.6895 135.907 34.3377 135.789 34.9776C135.68 35.5898 135.469 36.1797 135.166 36.7231C134.856 37.2658 134.461 37.755 133.995 38.1718C133.524 38.6054 132.979 38.9665 132.381 39.242C131.77 39.5216 131.123 39.7149 130.458 39.8164C129.744 39.9225 129.024 39.9796 128.301 39.9867C127.964 39.9939 127.61 39.998 127.266 39.998L126.017 40L8.73263 39.998Z" fill="black"/>
<path d="M68.6135 21.7508C66.1594 21.7508 64.2165 23.633 64.2165 26.2478C64.2165 28.7575 66.1594 30.7438 68.6135 30.7438C71.0677 30.7438 73.0105 28.8616 73.0105 26.2478C73.0105 23.528 71.0677 21.7508 68.6135 21.7508ZM68.6135 28.8616C67.2842 28.8616 66.1594 27.7108 66.1594 26.1427C66.1594 24.5747 67.2842 23.4239 68.6135 23.4239C69.9429 23.4239 71.0677 24.4696 71.0677 26.1427C71.0677 27.7118 69.9429 28.8616 68.6135 28.8616ZM59.1038 21.7508C56.6496 21.7508 54.7068 23.633 54.7068 26.2478C54.7068 28.7575 56.6496 30.7438 59.1038 30.7438C61.5579 30.7438 63.5008 28.8616 63.5008 26.2478C63.5008 23.528 61.5579 21.7508 59.1038 21.7508ZM59.1038 28.8616C57.7744 28.8616 56.6496 27.7108 56.6496 26.1427C56.6496 24.5747 57.7744 23.4239 59.1038 23.4239C60.4331 23.4239 61.5579 24.4696 61.5579 26.1427C61.5579 27.7118 60.4331 28.8616 59.1038 28.8616ZM47.7534 23.1097V24.993H52.1504C52.0481 26.0377 51.6391 26.8752 51.1278 27.3976C50.5143 28.025 49.4917 28.7565 47.7534 28.7565C44.9925 28.7565 42.9474 26.561 42.9474 23.7371C42.9474 20.9142 45.0947 18.7177 47.7534 18.7177C49.185 18.7177 50.3098 19.3462 51.1278 20.0776L52.4571 18.7187C51.3323 17.672 49.9008 16.8354 47.8556 16.8354C44.1744 16.8354 41.0045 19.9726 41.0045 23.7371C41.0045 27.5016 44.1744 30.6388 47.8556 30.6388C49.9008 30.6388 51.3323 30.0124 52.5594 28.6524C53.7865 27.3976 54.1955 25.6194 54.1955 24.2605C54.1955 23.8422 54.1955 23.4239 54.0932 23.1097H47.7534ZM94.1774 24.5747C93.7684 23.528 92.7459 21.7508 90.4962 21.7508C88.2466 21.7508 86.406 23.528 86.406 26.2478C86.406 28.7575 88.2466 30.7438 90.7008 30.7438C92.6436 30.7438 93.8707 29.489 94.2797 28.7565L92.8481 27.7118C92.3368 28.4433 91.7233 28.9666 90.7008 28.9666C89.6782 28.9666 89.0647 28.5484 88.5534 27.6067L94.382 25.097L94.1774 24.5747ZM88.2466 26.0377C88.2466 24.3645 89.5759 23.4239 90.4962 23.4239C91.212 23.4239 91.9278 23.8422 92.1323 24.3645L88.2466 26.0377ZM83.4406 30.3256H85.3835V17.2537H83.4406V30.3256ZM80.3729 22.6914C79.8617 22.1691 79.0436 21.6467 78.0211 21.6467C75.8737 21.6467 73.8286 23.633 73.8286 26.1427C73.8286 28.6524 75.7714 30.5347 78.0211 30.5347C79.0436 30.5347 79.8617 30.0124 80.2707 29.489H80.3729V30.1164C80.3729 31.7895 79.4526 32.7312 78.0211 32.7312C76.8962 32.7312 76.0782 31.8946 75.8737 31.1621L74.2376 31.8946C74.7489 33.0444 75.9759 34.5084 78.1233 34.5084C80.3729 34.5084 82.2135 33.1484 82.2135 29.9073V21.9599H80.3729V22.6914ZM78.1233 28.8616C76.794 28.8616 75.6692 27.7108 75.6692 26.1427C75.6692 24.5747 76.794 23.4239 78.1233 23.4239C79.4526 23.4239 80.4752 24.5747 80.4752 26.1427C80.4752 27.7118 79.4526 28.8616 78.1233 28.8616ZM103.074 17.2537H98.4722V30.3256H100.415V25.4113H103.074C105.221 25.4113 107.266 23.8422 107.266 21.3325C107.266 18.8228 105.221 17.2548 103.074 17.2548V17.2537ZM103.176 23.528H100.415V19.0319H103.176C104.608 19.0319 105.426 20.2868 105.426 21.2274C105.323 22.3782 104.505 23.528 103.176 23.528ZM114.935 21.6457C113.504 21.6457 112.072 22.2741 111.561 23.633L113.299 24.3645C113.708 23.633 114.322 23.4239 115.038 23.4239C116.06 23.4239 116.98 24.0513 117.083 25.097V25.2011C116.776 24.993 115.958 24.6787 115.14 24.6787C113.299 24.6787 111.459 25.7245 111.459 27.6067C111.459 29.3839 112.992 30.5347 114.629 30.5347C115.958 30.5347 116.571 29.9073 117.083 29.2798H117.185V30.3256H119.026V25.3062C118.821 23.0056 117.083 21.6467 114.935 21.6467V21.6457ZM114.731 28.8616C114.117 28.8616 113.197 28.5473 113.197 27.7108C113.197 26.6661 114.322 26.3519 115.242 26.3519C116.06 26.3519 116.469 26.561 116.98 26.7702C116.776 28.025 115.753 28.8616 114.731 28.8616ZM125.468 21.9599L123.32 27.6067H123.218L120.968 21.9599H118.923L122.298 29.9073L120.355 34.2992H122.298L127.513 21.9599H125.468ZM108.289 30.3256H110.232V17.2537H108.289V30.3256Z" fill="white"/>
<path d="M9.61199 6.79639C9.30522 7.11061 9.10071 7.63295 9.10071 8.26037V31.371C9.10071 31.9984 9.30522 32.5207 9.61199 32.835L9.71424 32.939L22.3939 19.9723V19.7641L9.61199 6.79639Z" fill="url(#paint0_linear_511_3)"/>
<path d="M26.5865 24.3656L22.394 20.0777V19.7645L26.5865 15.4766L26.6888 15.5816L31.6993 18.5096C33.1309 19.3462 33.1309 20.7051 31.6993 21.5417L26.5865 24.3656Z" fill="url(#paint1_linear_511_3)"/>
<path d="M26.6888 24.2604L22.394 19.8684L9.61206 32.9402C10.1233 33.4626 10.8391 33.4626 11.7594 33.0443L26.6888 24.2604Z" fill="url(#paint2_linear_511_3)"/>
<path d="M26.6888 15.4765L11.7594 6.79662C10.8391 6.27428 10.1233 6.37834 9.61206 6.9017L22.394 19.8684L26.6888 15.4765Z" fill="url(#paint3_linear_511_3)"/>
<path opacity="0.2" d="M26.5855 24.1562L11.7585 32.731C10.9404 33.2534 10.2246 33.1493 9.71334 32.731L9.61108 32.8351L9.71334 32.9402C10.2246 33.3585 10.9404 33.4625 11.7585 32.9402L26.5855 24.1562Z" fill="black"/>
<path opacity="0.12" d="M9.61203 32.7311C9.30526 32.4169 9.203 31.8945 9.203 31.2671V31.3711C9.203 31.9986 9.40751 32.5219 9.71428 32.8351V32.7311H9.61203Z" fill="black"/>
<path opacity="0.12" d="M31.6992 21.2273L26.5864 24.1553L26.6887 24.2604L31.6992 21.3324C32.415 20.9141 32.7218 20.3918 32.7218 19.8684C32.7218 20.3918 32.3127 20.8101 31.6992 21.2283V21.2273Z" fill="black"/>
<path opacity="0.25" d="M11.7594 6.90177L31.6992 18.5086C32.3128 18.9269 32.7218 19.3451 32.7218 19.8685C32.7218 19.3462 32.415 18.8228 31.6992 18.4045L11.7594 6.79669C10.3278 5.96012 9.203 6.69263 9.203 8.36678V8.47186C9.203 6.79873 10.3278 6.06622 11.7594 6.90279V6.90177Z" fill="white"/>
<path d="M42.0271 13.9084H41.3113V11.817H41.9248C42.4361 11.3987 42.7429 10.5622 42.7429 9.41139V6.27427H46.8331V11.817H47.5489V13.9084H46.8331V12.5485H42.1293V13.9084H42.0271ZM43.4586 9.41139C43.4586 10.352 43.2541 11.1886 42.8451 11.816H45.9128V7.11083H43.3564V9.41139H43.4586ZM53.582 11.7119C52.9684 12.3394 52.2526 12.6526 51.3323 12.6526C50.412 12.6526 49.6962 12.3394 49.0827 11.7119C48.4692 11.0845 48.1624 10.352 48.1624 9.41139C48.1624 8.47076 48.4692 7.73826 49.0827 7.11083C49.6962 6.48341 50.412 6.16919 51.3323 6.16919C52.2526 6.16919 52.9684 6.48341 53.582 7.11083C54.1955 7.73826 54.5023 8.47076 54.5023 9.41139C54.5023 10.352 54.1955 11.0845 53.582 11.7119ZM49.6962 11.1886C50.1053 11.6069 50.7188 11.9211 51.3323 11.9211C51.9459 11.9211 52.5594 11.7119 52.9684 11.1886C53.3774 10.7703 53.6842 10.1429 53.6842 9.41139C53.6842 8.6799 53.4797 8.05248 52.9684 7.6342C52.5594 7.21591 51.9459 6.90169 51.3323 6.90169C50.7188 6.90169 50.1053 7.11083 49.6962 7.6342C49.2872 8.05248 48.9805 8.6799 48.9805 9.41139C48.9805 10.1429 49.185 10.7703 49.6962 11.1886ZM58.4902 12.6536C57.5699 12.6536 56.8541 12.3394 56.2406 11.7119C55.6271 11.0845 55.3203 10.352 55.3203 9.41139C55.3203 8.47076 55.6271 7.73826 56.2406 7.11083C56.8541 6.48341 57.5699 6.16919 58.4902 6.16919C59.4105 6.16919 60.1263 6.48341 60.7398 7.21591L60.2286 7.73826C59.8195 7.21489 59.206 6.90169 58.4902 6.90169C57.7744 6.90169 57.2632 7.11083 56.7519 7.6342C56.2406 8.05248 56.0361 8.6799 56.0361 9.41139C56.0361 10.1429 56.2406 10.7703 56.7519 11.1886C57.1609 11.6069 57.7744 11.9211 58.4902 11.9211C59.206 11.9211 59.8195 11.6069 60.3308 10.9794L60.8421 11.5028C60.5353 11.816 60.2286 12.1302 59.8195 12.3394C59.4105 12.5485 59.0015 12.6536 58.4902 12.6536ZM64.1143 12.5485H63.2962V7.00677H61.5579V6.27427H65.7504V7.00677H64.012V12.5485H64.1143ZM71.1699 6.27427L68.818 11.6079C68.5113 12.3394 68 12.7576 67.3865 12.7576C67.182 12.7576 66.9774 12.7576 66.7729 12.6536L66.9774 11.9211C67.0797 12.0251 67.2842 12.0251 67.3865 12.0251C67.591 12.0251 67.6932 12.0251 67.7955 11.9211C67.8977 11.816 68 11.7119 68.1023 11.5028L68.3068 10.9794L66.2617 6.37833H67.1819L68.7158 9.93373L70.1474 6.37833H71.1699V6.27427ZM72.0902 12.5485V6.27427H76.4872V12.5485H75.6692V7.00677H72.806V12.5485H72.0902ZM77.9188 12.5485V6.27427H78.7368V8.9931H81.8045V6.27427H82.6226V12.5485H81.8045V9.72459H78.7368V12.5485H77.9188ZM89.0647 11.7119C88.4511 12.3394 87.7353 12.6526 86.815 12.6526C85.8947 12.6526 85.1789 12.3394 84.5654 11.7119C83.9519 11.0845 83.6451 10.352 83.6451 9.41139C83.6451 8.47076 83.9519 7.73826 84.5654 7.11083C85.1789 6.48341 85.8947 6.16919 86.815 6.16919C87.7353 6.16919 88.4511 6.48341 89.0647 7.11083C89.6782 7.73826 89.985 8.47076 89.985 9.41139C89.8827 10.352 89.5759 11.0845 89.0647 11.7119ZM85.0767 11.1886C85.4857 11.6069 86.0992 11.9211 86.7128 11.9211C87.3263 11.9211 87.9398 11.7119 88.3489 11.1886C88.7579 10.7703 89.0647 10.1429 89.0647 9.41139C89.0647 8.6799 88.8601 8.05248 88.3489 7.6342C87.9398 7.21591 87.3263 6.90169 86.7128 6.90169C86.0992 6.90169 85.4857 7.11083 85.0767 7.6342C84.6677 8.05248 84.3609 8.6799 84.3609 9.41139C84.3609 10.1429 84.6677 10.7703 85.0767 11.1886ZM93.1549 12.5485V6.27427H95.4045C95.9158 6.27427 96.3248 6.48341 96.6316 6.79763C96.9383 7.11083 97.1429 7.52912 97.1429 8.05248C97.1429 8.36568 97.0406 8.57482 96.9383 8.88904C96.8361 9.09818 96.6316 9.30732 96.3248 9.41139C96.6316 9.51545 96.8361 9.72459 97.0406 9.93373C97.2451 10.1429 97.3474 10.4571 97.3474 10.8754C97.3474 11.3977 97.1428 11.816 96.8361 12.1302C96.4271 12.4444 96.018 12.6536 95.5068 12.6536H93.1549V12.5485ZM93.9729 8.9931H95.4045C95.7113 8.9931 95.9158 8.88904 96.1203 8.6799C96.3248 8.47076 96.4271 8.26162 96.4271 8.05248C96.4271 7.84334 96.3248 7.6342 96.1203 7.42506C95.9158 7.21591 95.7113 7.11083 95.4045 7.11083H93.9729V8.9931ZM93.9729 11.817H95.609C95.9158 11.817 96.1203 11.7119 96.3248 11.5028C96.5293 11.2937 96.6316 11.0845 96.6316 10.7703C96.6316 10.5612 96.5293 10.2479 96.3248 10.0388C96.1203 9.82967 95.9158 9.72459 95.609 9.72459H94.0752V11.816H93.9729V11.817Z" fill="white" stroke="white" stroke-width="0.2"/>
<defs>
<linearGradient id="paint0_linear_511_3" x1="21.2688" y1="8.06143" x2="0.892258" y2="13.4492" gradientUnits="userSpaceOnUse">
<stop stop-color="#00A0FF"/>
<stop offset="0.00657" stop-color="#00A1FF"/>
<stop offset="0.2601" stop-color="#00BEFF"/>
<stop offset="0.5122" stop-color="#00D2FF"/>
<stop offset="0.7604" stop-color="#00DFFF"/>
<stop offset="1" stop-color="#00E3FF"/>
</linearGradient>
<linearGradient id="paint1_linear_511_3" x1="33.5751" y1="19.8702" x2="8.83239" y2="19.8702" gradientUnits="userSpaceOnUse">
<stop stop-color="#FFE000"/>
<stop offset="0.4087" stop-color="#FFBD00"/>
<stop offset="0.7754" stop-color="#FFA500"/>
<stop offset="1" stop-color="#FF9C00"/>
</linearGradient>
<linearGradient id="paint2_linear_511_3" x1="24.3644" y1="22.2695" x2="7.49363" y2="49.9669" gradientUnits="userSpaceOnUse">
<stop stop-color="#FF3A44"/>
<stop offset="1" stop-color="#C31162"/>
</linearGradient>
<linearGradient id="paint3_linear_511_3" x1="6.43938" y1="-0.861845" x2="13.9149" y2="11.5253" gradientUnits="userSpaceOnUse">
<stop stop-color="#32A071"/>
<stop offset="0.0685" stop-color="#2DA771"/>
<stop offset="0.4762" stop-color="#15CF74"/>
<stop offset="0.8009" stop-color="#06E775"/>
<stop offset="1" stop-color="#00F076"/>
</linearGradient>
</defs>
</svg>
