<svg width="22" height="14" viewBox="0 0 22 14" fill="none" xmlns="http://www.w3.org/2000/svg">
<path d="M21.6206 0H0.379327C0.169855 0 0 0.164937 0 0.368397V13.6316C0 13.835 0.169855 14 0.379327 14H21.6207C21.8301 14 22 13.835 22 13.6316V0.368397C22 0.164937 21.8301 0 21.6206 0Z" fill="#82C3D2"/>
<path d="M2.55737 1.67653C2.52303 1.53533 2.51448 1.48329 2.57971 1.41998C2.61151 1.38909 2.61151 1.33905 2.57971 1.30817C2.54791 1.27729 2.49639 1.27729 2.4646 1.30817C2.42605 1.34563 2.40144 1.3835 2.38677 1.42185C2.34074 1.54225 2.20991 1.67294 2.12841 1.77281C2.09971 1.80816 2.04419 1.90732 2.14822 2.06566C2.17241 2.10243 2.22242 2.11324 2.26062 2.08995C2.29857 2.06646 2.30961 2.0175 2.28542 1.98078C2.2464 1.92114 2.24524 1.88437 2.25616 1.87093C2.26905 1.85503 2.30901 1.84664 2.35086 1.86104C2.37789 1.87013 2.44071 1.90165 2.44071 1.9968C2.44071 2.0728 2.40453 2.14246 2.34145 2.1877C2.27824 2.23311 2.19643 2.24592 2.11758 2.22213C2.02021 2.19325 1.95219 2.09363 1.95219 1.97982C1.95219 1.89839 1.97016 1.81609 2.00316 1.74397C2.0084 1.73333 2.13284 1.48296 2.16489 1.38964C2.22827 1.20504 2.16386 1.11222 2.1199 1.07345C2.06108 1.02141 1.9751 1.00843 1.9011 1.03994C1.88138 1.04842 1.86023 1.04845 1.84052 1.03994C1.76657 1.00843 1.68063 1.02141 1.62172 1.07345C1.57776 1.11222 1.51335 1.20508 1.57673 1.38964C1.60879 1.48296 1.73318 1.73333 1.73731 1.74167C1.77138 1.81613 1.78939 1.89843 1.78939 1.97986C1.78939 2.09371 1.72141 2.19329 1.624 2.22217C1.54485 2.24592 1.4633 2.23327 1.40013 2.18774C1.33705 2.14246 1.30087 2.07284 1.30087 1.99684C1.30087 1.90169 1.36369 1.87022 1.39072 1.86108C1.4327 1.84672 1.47245 1.85503 1.48542 1.87097C1.49634 1.88441 1.49518 1.92118 1.45616 1.98082C1.43197 2.01759 1.44301 2.06654 1.48096 2.09C1.5192 2.11349 1.56939 2.10252 1.59336 2.06571C1.69735 1.90736 1.64187 1.80824 1.61317 1.77285C1.53165 1.67304 1.40084 1.54227 1.35481 1.42191C1.34014 1.38354 1.31553 1.34567 1.27698 1.30821C1.24519 1.27733 1.19367 1.27733 1.16187 1.30821C1.13007 1.3391 1.13007 1.38914 1.16187 1.42002C1.22705 1.48333 1.21859 1.53538 1.18421 1.67657C1.16359 1.76116 1.13798 1.86667 1.13798 1.99672C1.13798 2.08236 1.16867 2.16431 1.22038 2.23191C1.22103 2.23275 1.22043 2.23398 1.21936 2.23398C1.17437 2.23398 1.13794 2.26933 1.13794 2.31307C1.13794 2.35677 1.17433 2.39216 1.21936 2.39216C1.22043 2.39216 1.22103 2.39339 1.22038 2.39424C1.16867 2.46183 1.13798 2.54375 1.13798 2.62938C1.13798 2.75943 1.16359 2.86494 1.18417 2.94958C1.2185 3.09077 1.22705 3.14281 1.16183 3.20612C1.13003 3.23701 1.13003 3.28705 1.16183 3.31793C1.17773 3.33338 1.19857 3.3411 1.21941 3.3411C1.2402 3.3411 1.26109 3.33338 1.27698 3.31793C1.31554 3.28047 1.34015 3.24259 1.35482 3.20422C1.40086 3.08375 1.53163 2.95321 1.61317 2.85329C1.64187 2.81794 1.69739 2.71878 1.59336 2.56044C1.56926 2.52367 1.51894 2.51273 1.48096 2.53615C1.44301 2.55964 1.43197 2.6086 1.45616 2.64533C1.49518 2.70497 1.49634 2.74174 1.48542 2.75517C1.47249 2.77091 1.4327 2.77926 1.39072 2.76507C1.36369 2.75597 1.30087 2.72446 1.30087 2.6293C1.30087 2.5533 1.33705 2.48364 1.40013 2.4384C1.46334 2.39299 1.54507 2.38002 1.624 2.40397C1.72137 2.43285 1.78939 2.53247 1.78939 2.64629C1.78939 2.72771 1.77142 2.81001 1.73731 2.88447L1.20402 4.04976C1.16019 4.1455 1.13794 4.24734 1.13794 4.35218C1.13794 4.54497 1.13794 4.82606 1.13794 5.01886C1.13794 5.12374 1.16024 5.22553 1.20402 5.32127L1.73722 6.48648C1.7713 6.56093 1.7893 6.64324 1.7893 6.72466C1.7893 6.83852 1.72132 6.9381 1.62391 6.96698C1.54476 6.99093 1.46321 6.97808 1.40005 6.93255C1.33697 6.88726 1.30079 6.81765 1.30079 6.74165C1.30079 6.64649 1.36361 6.61502 1.39064 6.60588C1.43262 6.59165 1.47236 6.59983 1.48534 6.61577C1.49625 6.62921 1.49509 6.66598 1.45608 6.72562C1.43189 6.76239 1.44293 6.81135 1.48087 6.8348C1.51911 6.8583 1.5693 6.84745 1.59328 6.81051C1.69726 6.65217 1.64179 6.55305 1.61309 6.51765C1.53154 6.41781 1.40077 6.28714 1.35474 6.16673C1.34007 6.12836 1.31545 6.09048 1.2769 6.05302C1.2451 6.02213 1.19358 6.02213 1.16178 6.05302C1.12999 6.0839 1.12999 6.13394 1.16178 6.16482C1.22697 6.22814 1.2185 6.28018 1.18413 6.42137C1.16355 6.50601 1.13794 6.61152 1.13794 6.74156C1.13794 6.8272 1.16863 6.90916 1.22034 6.97675C1.22099 6.9776 1.22039 6.97883 1.21932 6.97883C1.17433 6.97883 1.13789 7.01418 1.13789 7.05792C1.13789 7.10166 1.17429 7.13701 1.21932 7.13701C1.22039 7.13701 1.22099 7.13824 1.22034 7.13908C1.16859 7.20667 1.13794 7.28859 1.13794 7.37427C1.13794 7.50432 1.16355 7.60983 1.18413 7.69447C1.21846 7.83566 1.22701 7.8877 1.16178 7.95101C1.12999 7.9819 1.12999 8.03194 1.16178 8.06282C1.17768 8.07826 1.19852 8.08598 1.21936 8.08598C1.24016 8.08598 1.26104 8.07826 1.27694 8.06282C1.3155 8.02536 1.34011 7.98747 1.35477 7.9491C1.40082 7.82864 1.53159 7.6981 1.61313 7.59818C1.64183 7.56283 1.69735 7.46367 1.59332 7.30533C1.56921 7.26856 1.5189 7.25762 1.48091 7.28104C1.44297 7.30453 1.43193 7.35349 1.45612 7.39021C1.49514 7.44985 1.4963 7.48662 1.48538 7.50006C1.47245 7.51596 1.43266 7.52435 1.39068 7.50995C1.36365 7.50085 1.30083 7.46934 1.30083 7.37419C1.30083 7.29819 1.33701 7.22853 1.40009 7.18329C1.4633 7.13788 1.54502 7.1249 1.62396 7.14886C1.72132 7.17774 1.78934 7.27736 1.78934 7.39117C1.78934 7.4726 1.77138 7.5549 1.73726 7.62936L1.20402 8.79477C1.16019 8.89052 1.13794 8.99235 1.13794 9.09719C1.13794 9.28998 1.13794 9.57108 1.13794 9.76387C1.13794 9.86875 1.16024 9.97054 1.20402 10.0663L1.73722 11.2315C1.7713 11.3059 1.7893 11.3882 1.7893 11.4697C1.7893 11.5835 1.72132 11.6831 1.62391 11.712C1.54476 11.7359 1.46321 11.723 1.40005 11.6776C1.33697 11.6323 1.30079 11.5627 1.30079 11.4867C1.30079 11.3915 1.36361 11.36 1.39064 11.3509C1.43262 11.3367 1.47236 11.3448 1.48534 11.3608C1.49625 11.3742 1.49509 11.411 1.45608 11.4706C1.43189 11.5074 1.44293 11.5563 1.48087 11.5798C1.51911 11.6033 1.5693 11.5925 1.59328 11.5555C1.69726 11.3972 1.64179 11.2981 1.61309 11.2627C1.5317 11.1627 1.40077 11.032 1.35471 10.9117C1.34003 10.8733 1.31543 10.8355 1.2769 10.798C1.2451 10.7671 1.19358 10.7671 1.16178 10.798C1.12999 10.8289 1.12999 10.879 1.16178 10.9098C1.22697 10.9731 1.2185 11.0252 1.18413 11.1664C1.16355 11.251 1.13794 11.3565 1.13794 11.4865C1.13794 11.669 1.13794 11.9368 1.13794 12.1192C1.13794 12.2493 1.16355 12.3548 1.18413 12.4394C1.21846 12.5806 1.22701 12.6327 1.16178 12.696C1.12999 12.7269 1.12999 12.7769 1.16178 12.8078C1.17768 12.8232 1.19852 12.831 1.21936 12.831C1.24016 12.831 1.26104 12.8232 1.27694 12.8078C1.3155 12.7703 1.34011 12.7324 1.35477 12.6941C1.40082 12.5736 1.53159 12.4431 1.61313 12.3432C1.64183 12.3078 1.69735 12.2086 1.59332 12.0503C1.56921 12.0135 1.5189 12.0027 1.48091 12.026C1.44297 12.0495 1.43193 12.0985 1.45612 12.1352C1.49514 12.1948 1.4963 12.2316 1.48538 12.245C1.47245 12.2609 1.43266 12.2691 1.39068 12.2549C1.36365 12.2458 1.30083 12.2143 1.30083 12.1192C1.30083 12.0432 1.33701 11.9735 1.40009 11.9283C1.4633 11.8829 1.54502 11.87 1.62396 11.8938C1.72132 11.9227 1.78934 12.0223 1.78934 12.1361C1.78934 12.2176 1.77138 12.2999 1.73838 12.372C1.73314 12.3826 1.6087 12.633 1.57665 12.7263C1.51327 12.9109 1.57768 13.0037 1.62164 13.0425C1.65923 13.0757 1.70766 13.0932 1.75716 13.0932C1.78522 13.0932 1.81366 13.0875 1.84048 13.0761C1.8602 13.0676 1.88135 13.0676 1.90106 13.0761C1.92783 13.0875 1.95632 13.0932 1.98438 13.0932C2.03375 13.0932 2.08226 13.0757 2.1199 13.0425C2.16386 13.0037 2.22827 12.9109 2.16489 12.7263C2.13284 12.633 2.00844 12.3826 2.00432 12.3743C1.97024 12.2998 1.95224 12.2175 1.95224 12.1361C1.95224 12.0223 2.02021 11.9226 2.11762 11.8938C2.19682 11.87 2.27833 11.8828 2.34149 11.9282C2.40457 11.9735 2.44075 12.0431 2.44075 12.1191C2.44075 12.2143 2.37793 12.2457 2.3509 12.2549C2.30909 12.2691 2.26905 12.2609 2.2562 12.245C2.24528 12.2316 2.24644 12.1948 2.28546 12.1351C2.30965 12.0984 2.29861 12.0495 2.26067 12.026C2.22264 12.0028 2.1725 12.0136 2.14826 12.0503C2.04428 12.2086 2.09975 12.3077 2.12845 12.3431C2.21 12.443 2.34077 12.5736 2.3868 12.694C2.40147 12.7324 2.42608 12.7703 2.46464 12.8078C2.48054 12.8232 2.50138 12.8309 2.52222 12.8309C2.54306 12.8309 2.5639 12.8232 2.5798 12.8078C2.61159 12.7769 2.61159 12.7268 2.5798 12.6959C2.51461 12.6326 2.52308 12.5806 2.55745 12.4394C2.57803 12.3548 2.60364 12.2492 2.60364 12.1192C2.60364 11.9367 2.60364 11.669 2.60364 11.4865C2.60364 11.3564 2.57803 11.2509 2.55745 11.1663C2.52312 11.0252 2.51457 10.9731 2.5798 10.9098C2.61159 10.8789 2.61159 10.8288 2.5798 10.7979C2.548 10.7671 2.49648 10.7671 2.46468 10.7979C2.42615 10.8354 2.40155 10.8732 2.38688 10.9116C2.34081 11.032 2.20987 11.1626 2.1285 11.2626C2.09979 11.2979 2.04428 11.3971 2.1483 11.5554C2.1725 11.5922 2.22251 11.603 2.26071 11.5797C2.29865 11.5562 2.30969 11.5073 2.2855 11.4706C2.24649 11.4109 2.24533 11.3741 2.25624 11.3607C2.26913 11.3448 2.30909 11.3366 2.35094 11.3508C2.37797 11.3599 2.44079 11.3914 2.44079 11.4866C2.44079 11.5626 2.40461 11.6322 2.34153 11.6775C2.27833 11.7229 2.19651 11.7359 2.11767 11.7119C2.0203 11.683 1.95228 11.5834 1.95228 11.4696C1.95228 11.3882 1.97024 11.3059 2.00436 11.2314L2.53756 10.0662C2.58139 9.97046 2.60364 9.86862 2.60364 9.76378C2.60364 9.57099 2.60364 9.2899 2.60364 9.09711C2.60364 8.99222 2.58134 8.89043 2.53756 8.79469L2.0044 7.62957C1.97033 7.55511 1.95232 7.47281 1.95232 7.39138C1.95232 7.27753 2.0203 7.17795 2.11771 7.14907C2.1969 7.12528 2.27841 7.13809 2.34158 7.1835C2.40466 7.22878 2.44084 7.2984 2.44084 7.3744C2.44084 7.46955 2.37801 7.50102 2.35099 7.51016C2.30918 7.52452 2.26913 7.51621 2.25628 7.50027C2.24537 7.48683 2.24653 7.45006 2.28555 7.39042C2.30974 7.35365 2.29869 7.30474 2.26075 7.28124C2.22273 7.25808 2.17258 7.26889 2.14835 7.30553C2.04436 7.46388 2.09984 7.563 2.12854 7.59839C2.21008 7.69824 2.34085 7.8289 2.38689 7.94931C2.40156 7.98768 2.42617 8.02557 2.46473 8.06303C2.48062 8.07847 2.50146 8.08619 2.5223 8.08619C2.54314 8.08619 2.56398 8.07847 2.57988 8.06303C2.61168 8.03215 2.61168 7.9821 2.57988 7.95122C2.5147 7.88791 2.52316 7.83586 2.55754 7.69467C2.57812 7.61003 2.60373 7.50453 2.60373 7.37448C2.60373 7.28884 2.57304 7.20688 2.52133 7.13929C2.52068 7.13844 2.52128 7.13721 2.52235 7.13721C2.56734 7.13721 2.60377 7.10187 2.60377 7.05813C2.60377 7.01443 2.56738 6.97904 2.52235 6.97904C2.52128 6.97904 2.52068 6.97781 2.52133 6.97696C2.57308 6.90937 2.60373 6.82749 2.60373 6.74177C2.60373 6.61173 2.57812 6.50622 2.55754 6.42158C2.52321 6.28039 2.51466 6.22835 2.57988 6.16503C2.61168 6.13415 2.61168 6.08411 2.57988 6.05322C2.54809 6.02234 2.49657 6.02234 2.46477 6.05322C2.42621 6.09069 2.4016 6.12857 2.38694 6.16694C2.34089 6.28741 2.21012 6.41795 2.12858 6.51786C2.09988 6.55321 2.04436 6.65238 2.14839 6.81072C2.17258 6.84749 2.2226 6.85817 2.2608 6.83501C2.29874 6.81151 2.30978 6.76256 2.28559 6.72583C2.24657 6.66619 2.24541 6.62942 2.25633 6.61598C2.26922 6.60008 2.30918 6.5919 2.35103 6.60609C2.37806 6.61519 2.44088 6.6467 2.44088 6.74186C2.44088 6.81786 2.4047 6.88751 2.34162 6.93275C2.27841 6.97816 2.1966 6.99097 2.11775 6.96719C2.02039 6.9383 1.95237 6.83868 1.95237 6.72487C1.95237 6.64344 1.97033 6.56114 2.00444 6.48669L2.53764 5.32148C2.58147 5.22574 2.60373 5.1239 2.60373 5.01906C2.60373 4.82627 2.60373 4.54518 2.60373 4.35238C2.60373 4.2475 2.58143 4.14571 2.53764 4.04997L2.00444 2.88476C1.97037 2.81031 1.95237 2.728 1.95237 2.64658C1.95237 2.53272 2.02034 2.43314 2.11775 2.40426C2.19694 2.38047 2.27846 2.39329 2.34162 2.4387C2.4047 2.48398 2.44088 2.55359 2.44088 2.62959C2.44088 2.72475 2.37806 2.75622 2.35103 2.76536C2.30922 2.77959 2.26917 2.7712 2.25633 2.75547C2.24541 2.74203 2.24657 2.70526 2.28559 2.64562C2.30978 2.60885 2.29874 2.55989 2.2608 2.53644C2.22277 2.51328 2.17262 2.52392 2.14839 2.56069C2.04441 2.71903 2.09988 2.81815 2.12858 2.85354C2.21013 2.95339 2.34089 3.08405 2.38693 3.20447C2.4016 3.24284 2.42621 3.28072 2.46477 3.31818C2.48067 3.33363 2.50151 3.34135 2.52235 3.34135C2.54319 3.34135 2.56403 3.33363 2.57992 3.31818C2.61172 3.2873 2.61172 3.23726 2.57992 3.20637C2.51474 3.14306 2.52321 3.09102 2.55758 2.94983C2.57816 2.86519 2.60377 2.75968 2.60377 2.62963C2.60377 2.544 2.57308 2.46204 2.52137 2.39445C2.52072 2.3936 2.52132 2.39237 2.52239 2.39237C2.56738 2.39237 2.60382 2.35702 2.60382 2.31328C2.60382 2.26958 2.56742 2.23419 2.52239 2.23419C2.52132 2.23419 2.52072 2.23296 2.52137 2.23212C2.57312 2.16452 2.60377 2.08265 2.60377 1.99693C2.60351 1.86667 2.57791 1.76116 2.55737 1.67653ZM1.73108 1.33951C1.70216 1.25521 1.71226 1.20717 1.73134 1.19031C1.7438 1.17887 1.7627 1.17933 1.77469 1.18459C1.78939 1.19093 1.78939 1.20099 1.78939 1.20592C1.78939 1.24961 1.82578 1.28501 1.87081 1.28501C1.9158 1.28501 1.95224 1.24966 1.95224 1.20592C1.95224 1.20099 1.95224 1.19093 1.96693 1.18459C1.97871 1.17933 1.99748 1.17887 2.01029 1.19031C2.02937 1.20717 2.03946 1.25521 2.01055 1.33951C1.96571 1.4697 1.77588 1.46971 1.73108 1.33951ZM1.83389 4.64602C1.85389 4.62532 1.88766 4.62531 1.90764 4.64602C1.92811 4.66723 1.92811 4.70383 1.90764 4.72504C1.88765 4.74574 1.85388 4.74573 1.8339 4.72502C1.81343 4.70381 1.81342 4.66722 1.83389 4.64602ZM1.83388 9.39102C1.85388 9.37032 1.88767 9.37029 1.90766 9.391C1.92812 9.4122 1.92811 9.4488 1.90764 9.47C1.88766 9.4907 1.85388 9.49069 1.83389 9.46998C1.81343 9.44878 1.81341 9.41221 1.83388 9.39102ZM2.01042 12.7765C2.03934 12.8608 2.02924 12.9089 2.01016 12.9257C1.99735 12.937 1.97858 12.9365 1.9668 12.9315C1.95211 12.9251 1.95211 12.9151 1.95211 12.9101C1.95211 12.8664 1.91571 12.831 1.87068 12.831C1.82565 12.831 1.78926 12.8664 1.78926 12.9101C1.78926 12.9151 1.78926 12.9251 1.77456 12.9315C1.76262 12.9365 1.74371 12.937 1.73121 12.9257C1.71213 12.9089 1.70203 12.8608 1.73095 12.7765C1.77579 12.6463 1.96561 12.6463 2.01042 12.7765ZM1.90909 11.7654C1.92922 11.7858 1.92925 11.8201 1.90913 11.8405C1.88859 11.8613 1.85295 11.8613 1.83241 11.8405C1.81228 11.8201 1.81227 11.7858 1.83239 11.7654C1.85293 11.7446 1.88856 11.7446 1.90909 11.7654ZM2.38859 10.002C2.1857 10.4453 1.55575 10.4453 1.35287 10.002C1.31879 9.92751 1.30079 9.84521 1.30079 9.76378C1.30079 9.64993 1.36876 9.55031 1.46617 9.52147C1.54532 9.49768 1.62696 9.51049 1.69004 9.5559C1.75312 9.60118 1.7893 9.6708 1.7893 9.7468C1.7893 9.84196 1.72648 9.87342 1.69945 9.88256C1.65747 9.8968 1.61755 9.88862 1.60475 9.87267C1.59384 9.85923 1.595 9.82246 1.63401 9.76283C1.6582 9.72606 1.64716 9.6771 1.60922 9.65365C1.57119 9.63048 1.52105 9.64129 1.49681 9.67794C1.39283 9.83628 1.4483 9.9354 1.477 9.97079C1.53596 10.0431 1.64686 10.068 1.75291 10.0319C1.77012 10.0262 1.7893 10.0381 1.7893 10.0563V10.2169C1.7893 10.2167 1.78917 10.2167 1.78916 10.2166C1.78662 10.175 1.75117 10.1422 1.70792 10.1422C1.66293 10.1422 1.62649 10.1776 1.62649 10.2213C1.62649 10.2481 1.63647 10.285 1.6636 10.3182C1.7181 10.385 1.7893 10.4515 1.7893 10.5376C1.7893 10.5813 1.82569 10.6167 1.87073 10.6167C1.91576 10.6167 1.95215 10.5814 1.95215 10.5376C1.95215 10.4515 2.02335 10.385 2.07785 10.3182C2.10498 10.285 2.11496 10.2481 2.11496 10.2213C2.11496 10.1776 2.07865 10.1397 2.03371 10.1397C1.98872 10.1397 1.95246 10.1724 1.95245 10.2161C1.95245 10.2161 1.95245 10.2161 1.95245 10.2161C1.95241 10.2162 1.95211 10.2161 1.95211 10.216V10.0564C1.95211 10.0382 1.97129 10.0262 1.9885 10.032C2.09455 10.068 2.20541 10.0431 2.26441 9.97088C2.29311 9.93553 2.34862 9.83636 2.2446 9.67802C2.22041 9.64125 2.17017 9.63044 2.13219 9.65373C2.09425 9.67723 2.08321 9.72618 2.1074 9.76291C2.14641 9.82255 2.14757 9.85932 2.13666 9.87276C2.12377 9.88866 2.08385 9.89684 2.04196 9.88265C2.01493 9.87355 1.95211 9.84204 1.95211 9.74688C1.95211 9.67088 1.98829 9.60123 2.05137 9.55599C2.11457 9.51058 2.19639 9.4976 2.27523 9.52155C2.3726 9.55043 2.44062 9.65006 2.44062 9.76387C2.44071 9.84521 2.42275 9.92755 2.38859 10.002ZM2.38859 8.85901C2.42266 8.93346 2.44066 9.01576 2.44066 9.09719C2.44066 9.21104 2.37269 9.31062 2.27528 9.3395C2.19626 9.36346 2.11449 9.35048 2.05141 9.30507C1.98833 9.25979 1.95215 9.19018 1.95215 9.11418C1.95215 9.01902 2.01497 8.98755 2.042 8.97841C2.08389 8.96418 2.12385 8.97236 2.1367 8.9883C2.14762 9.00174 2.14646 9.03851 2.10744 9.09815C2.08325 9.13492 2.09429 9.18383 2.13223 9.20733C2.17048 9.23083 2.22066 9.21997 2.24464 9.18304C2.34862 9.02469 2.29315 8.92557 2.26445 8.89018C2.20545 8.8179 2.09459 8.79331 1.98855 8.82904C1.97131 8.83482 1.95215 8.82287 1.95215 8.80469V8.64434C1.95215 8.64427 1.95224 8.64425 1.95227 8.64431C1.95228 8.64431 1.95228 8.64432 1.95228 8.64433C1.95474 8.68585 1.99023 8.71878 2.03353 8.71878C2.07852 8.71878 2.11496 8.68342 2.11496 8.63969C2.11496 8.61294 2.10498 8.576 2.07785 8.54277C2.02335 8.47602 1.95215 8.40954 1.95215 8.32337C1.95215 8.27968 1.91576 8.24429 1.87073 8.24429C1.82569 8.24429 1.7893 8.27964 1.7893 8.32337C1.7893 8.40954 1.7181 8.47602 1.66361 8.54277C1.63647 8.576 1.62649 8.61294 1.62649 8.63969C1.62649 8.68338 1.6628 8.72136 1.70775 8.72136C1.75272 8.72136 1.78898 8.68862 1.789 8.64494C1.789 8.64491 1.789 8.64489 1.78901 8.64487C1.78909 8.64473 1.7893 8.64482 1.7893 8.64499L1.78933 8.80464C1.78934 8.8228 1.77016 8.83477 1.75295 8.829C1.6469 8.79331 1.536 8.8179 1.47705 8.89014C1.44834 8.92549 1.39283 9.02465 1.49685 9.183C1.52105 9.21977 1.57128 9.23045 1.60926 9.20729C1.6472 9.18379 1.65825 9.13483 1.63405 9.09811C1.59504 9.03847 1.59388 9.0017 1.60479 8.98826C1.6176 8.97236 1.65751 8.96418 1.6995 8.97837C1.72652 8.98747 1.78934 9.01898 1.78934 9.11413C1.78934 9.19013 1.75316 9.25979 1.69009 9.30503C1.62688 9.35044 1.54524 9.36342 1.46622 9.33946C1.36885 9.31058 1.30083 9.21096 1.30083 9.09715C1.30083 9.01572 1.31879 8.93342 1.35291 8.85896C1.55579 8.4156 2.18573 8.41564 2.38859 8.85901ZM1.9091 7.02047C1.92923 7.04087 1.92927 7.07518 1.90914 7.09558C1.8886 7.11641 1.85295 7.11641 1.8324 7.09559C1.81227 7.0752 1.81227 7.04091 1.83239 7.02051C1.85294 6.99968 1.88856 6.99964 1.9091 7.02047ZM2.38859 5.25704C2.1857 5.70042 1.55575 5.70042 1.35287 5.25704C1.31879 5.18258 1.30079 5.10028 1.30079 5.01886C1.30079 4.905 1.36876 4.80542 1.46617 4.77654C1.54532 4.75275 1.62696 4.76556 1.69004 4.81097C1.75312 4.85626 1.7893 4.92587 1.7893 5.00187C1.7893 5.09703 1.72648 5.12849 1.69945 5.13763C1.65747 5.15199 1.61755 5.14369 1.60475 5.12774C1.59384 5.1143 1.595 5.07754 1.63401 5.0179C1.6582 4.98113 1.64716 4.93217 1.60922 4.90872C1.57119 4.88543 1.52105 4.8962 1.49681 4.93301C1.39283 5.09135 1.4483 5.19047 1.477 5.22586C1.53596 5.29815 1.64686 5.32286 1.75291 5.287C1.77012 5.28123 1.7893 5.2932 1.7893 5.31136V5.47167C1.7893 5.47173 1.78921 5.47176 1.78918 5.4717C1.78917 5.47169 1.78917 5.47168 1.78917 5.47167C1.78671 5.43015 1.75122 5.39723 1.70792 5.39723C1.66293 5.39723 1.62649 5.43258 1.62649 5.47632C1.62649 5.50306 1.63647 5.54 1.6636 5.57323C1.7181 5.63998 1.7893 5.70646 1.7893 5.79263C1.7893 5.83633 1.82569 5.87172 1.87073 5.87172C1.91576 5.87172 1.95215 5.83637 1.95215 5.79263C1.95215 5.70646 2.02335 5.63998 2.07785 5.57323C2.10498 5.54 2.11496 5.50306 2.11496 5.47632C2.11496 5.43262 2.07865 5.3946 2.03371 5.3946C1.98873 5.3946 1.95247 5.42734 1.95245 5.47102C1.95245 5.47105 1.95245 5.47107 1.95244 5.47109C1.95236 5.47124 1.95215 5.47114 1.95215 5.47097L1.95212 5.31132C1.95211 5.29316 1.97129 5.28119 1.9885 5.28696C2.09455 5.32277 2.20541 5.29807 2.26441 5.22582C2.29311 5.19047 2.34862 5.09131 2.2446 4.93297C2.22041 4.89603 2.17017 4.88526 2.13219 4.90867C2.09425 4.93217 2.08321 4.98113 2.1074 5.01785C2.14641 5.07749 2.14757 5.11426 2.13666 5.1277C2.12377 5.1436 2.08385 5.15199 2.04196 5.13759C2.01493 5.12849 1.95211 5.09698 1.95211 5.00183C1.95211 4.92583 1.98829 4.85617 2.05137 4.81093C2.11457 4.76552 2.19639 4.75271 2.27523 4.7765C2.3726 4.80538 2.44062 4.905 2.44062 5.01881C2.44071 5.10028 2.42275 5.18258 2.38859 5.25704ZM2.38859 4.11403C2.42266 4.18849 2.44066 4.27079 2.44066 4.35222C2.44066 4.46607 2.37269 4.56565 2.27528 4.59453C2.19626 4.61849 2.11449 4.60551 2.05141 4.5601C1.98833 4.51482 1.95215 4.4452 1.95215 4.3692C1.95215 4.27405 2.01497 4.24258 2.042 4.23344C2.08389 4.21921 2.12385 4.22739 2.1367 4.24333C2.14762 4.25677 2.14646 4.29354 2.10744 4.35318C2.08325 4.38995 2.09429 4.43886 2.13223 4.46236C2.17048 4.48565 2.22066 4.475 2.24464 4.43807C2.34862 4.27972 2.29315 4.1806 2.26445 4.14521C2.20545 4.07293 2.09459 4.04822 1.98855 4.08407C1.97133 4.08984 1.95215 4.07787 1.95215 4.05972V3.89914C1.95215 3.89925 1.95228 3.89933 1.95229 3.89945C1.95483 3.94101 1.99029 3.97376 2.03353 3.97376C2.07852 3.97376 2.11496 3.93841 2.11496 3.89467C2.11496 3.86793 2.10498 3.83099 2.07785 3.79776C2.02335 3.73101 1.95215 3.66453 1.95215 3.57836C1.95215 3.53466 1.91576 3.49927 1.87073 3.49927C1.82569 3.49927 1.7893 3.53462 1.7893 3.57836C1.7893 3.66453 1.7181 3.73101 1.6636 3.79776C1.63647 3.83099 1.62649 3.86793 1.62649 3.89467C1.62649 3.93837 1.6628 3.97639 1.70775 3.97639C1.75273 3.97639 1.78899 3.94364 1.789 3.89995C1.789 3.89994 1.789 3.89993 1.789 3.89992C1.78904 3.89982 1.78934 3.89993 1.78934 3.90003V4.05967C1.78934 4.07783 1.77016 4.0898 1.75295 4.08403C1.6469 4.04822 1.536 4.07293 1.47705 4.14517C1.44834 4.18052 1.39283 4.27968 1.49685 4.43803C1.52105 4.47479 1.57128 4.48548 1.60926 4.46232C1.6472 4.43882 1.65825 4.38986 1.63405 4.35314C1.59504 4.2935 1.59388 4.25673 1.60479 4.24329C1.6176 4.22739 1.65751 4.21921 1.6995 4.2334C1.72652 4.2425 1.78934 4.27401 1.78934 4.36916C1.78934 4.44516 1.75316 4.51482 1.69009 4.56006C1.62688 4.60547 1.54524 4.61845 1.46622 4.59449C1.36885 4.56561 1.30083 4.46599 1.30083 4.35218C1.30083 4.27075 1.31879 4.18845 1.35291 4.11399C1.55579 3.67063 2.18573 3.67066 2.38859 4.11403ZM1.8324 2.35063C1.81228 2.33022 1.81225 2.29592 1.83237 2.27552C1.8529 2.2547 1.88854 2.25471 1.90908 2.27552C1.92921 2.29591 1.92922 2.33021 1.9091 2.35061C1.88856 2.37143 1.85294 2.37145 1.8324 2.35063Z" fill="#FFE15A"/>
<path d="M11.6333 8.0282C12.7156 8.0282 13.5929 7.17602 13.5929 6.12482C13.5929 5.07361 12.7156 4.22144 11.6333 4.22144C10.551 4.22144 9.67365 5.07361 9.67365 6.12482C9.67365 7.17602 10.551 8.0282 11.6333 8.0282Z" fill="#FFE15A"/>
<path d="M11.7807 3.69806C11.7807 3.7769 11.7148 3.84084 11.6337 3.84084C11.5525 3.84084 11.4867 3.7769 11.4867 3.69806C11.4867 3.52896 11.7807 3.52896 11.7807 3.69806Z" fill="#FFE15A"/>
<path d="M11.4867 8.55196C11.4867 8.47312 11.5525 8.40918 11.6337 8.40918C11.7148 8.40918 11.7807 8.47312 11.7807 8.55196C11.7807 8.72106 11.4867 8.72106 11.4867 8.55196Z" fill="#FFE15A"/>
<path d="M14.1324 6.26779C14.0512 6.26779 13.9854 6.20385 13.9854 6.12501C13.9854 6.04618 14.0512 5.98224 14.1324 5.98224C14.2993 5.98224 14.2993 6.26779 14.1324 6.26779Z" fill="#FFE15A"/>
<path d="M9.13479 5.98224C9.21596 5.98224 9.28179 6.04618 9.28179 6.12502C9.28179 6.20385 9.21596 6.26779 9.13479 6.26779C8.9679 6.26779 8.9679 5.98224 9.13479 5.98224Z" fill="#FFE15A"/>
<path d="M13.5044 4.50985C13.447 4.56561 13.354 4.56561 13.2965 4.50985C13.2391 4.45409 13.2391 4.36373 13.2965 4.30793C13.2982 4.30627 13.3002 4.30452 13.3024 4.3027C13.4315 4.19742 13.6239 4.39383 13.5044 4.50985Z" fill="#FFE15A"/>
<path d="M9.76283 7.74018C9.82024 7.68442 9.91327 7.68442 9.97072 7.74018C10.0282 7.79594 10.0281 7.8863 9.97072 7.9421C9.969 7.94377 9.96701 7.94552 9.96477 7.94735C9.83567 8.05258 9.6434 7.85627 9.76283 7.74018Z" fill="#FFE15A"/>
<path d="M13.2965 7.94211C13.2391 7.88636 13.2391 7.796 13.2965 7.7402C13.3539 7.6844 13.4469 7.68444 13.5044 7.7402C13.6239 7.85619 13.4316 8.0525 13.3025 7.94736C13.3002 7.94554 13.2982 7.94378 13.2965 7.94211Z" fill="#FFE15A"/>
<path d="M9.97076 4.30789C10.0282 4.36365 10.0282 4.45401 9.97076 4.50981C9.91335 4.56561 9.82032 4.56557 9.76288 4.50981C9.64336 4.39381 9.83563 4.19751 9.9648 4.30264C9.96705 4.30447 9.96904 4.30622 9.97076 4.30789Z" fill="#FFE15A"/>
<path d="M10.8132 3.8281C10.8443 3.90097 10.8086 3.98444 10.7336 4.01462C10.6586 4.04479 10.5727 4.01019 10.5416 3.93732C10.4758 3.78304 10.7347 3.67365 10.8108 3.82308C10.8117 3.82484 10.8125 3.82652 10.8132 3.8281Z" fill="#FFE15A"/>
<path d="M12.4541 8.42191C12.423 8.34904 12.4586 8.26557 12.5336 8.23539C12.6087 8.20522 12.6946 8.23981 12.7257 8.31268C12.7914 8.46698 12.5325 8.5764 12.4564 8.42694C12.4555 8.42517 12.4547 8.42349 12.4541 8.42191Z" fill="#FFE15A"/>
<path d="M13.9984 5.32817C13.9234 5.35834 13.8374 5.32374 13.8063 5.25087C13.7753 5.178 13.8109 5.09453 13.8859 5.06436C13.8875 5.06374 13.8891 5.06313 13.8909 5.06253C14.0487 5.01028 14.1525 5.26607 13.9984 5.32817Z" fill="#FFE15A"/>
<path d="M9.269 6.92185C9.34402 6.89168 9.42996 6.92628 9.46103 6.99915C9.49209 7.07202 9.45647 7.15549 9.38145 7.18566C9.3799 7.18628 9.37822 7.18689 9.37642 7.18749C9.21864 7.23973 9.11483 6.98395 9.269 6.92185Z" fill="#FFE15A"/>
<path d="M12.7256 3.9374C12.6946 4.01027 12.6086 4.04483 12.5336 4.0147C12.4586 3.98452 12.423 3.90101 12.454 3.82818C12.4547 3.8266 12.4555 3.82493 12.4564 3.82317C12.5326 3.67376 12.7914 3.78314 12.7256 3.9374Z" fill="#FFE15A"/>
<path d="M10.5416 8.31261C10.5726 8.23974 10.6586 8.20518 10.7336 8.23531C10.8086 8.26549 10.8442 8.349 10.8132 8.42183C10.8125 8.42341 10.8117 8.42508 10.8108 8.42684C10.7347 8.57628 10.4758 8.46689 10.5416 8.31261Z" fill="#FFE15A"/>
<path d="M13.8859 7.18565C13.8109 7.15547 13.7753 7.07196 13.8063 6.99913C13.8374 6.92626 13.9234 6.8917 13.9984 6.92184C14.1526 6.98382 14.0487 7.2398 13.891 7.18748C13.8891 7.18688 13.8875 7.18627 13.8859 7.18565Z" fill="#FFE15A"/>
<path d="M9.38141 5.06438C9.45643 5.09455 9.49201 5.17807 9.46098 5.25089C9.42992 5.32372 9.34394 5.35832 9.26896 5.32819C9.11476 5.26613 9.21859 5.01023 9.37636 5.06254C9.37817 5.06314 9.37986 5.06375 9.38141 5.06438Z" fill="#FFE15A"/>
<path d="M11.2903 3.71681C11.3062 3.79415 11.2545 3.86931 11.1748 3.88467C11.0952 3.90007 11.0178 3.84987 11.002 3.77249C10.9682 3.60749 11.2565 3.55181 11.2903 3.71681Z" fill="#FFE15A"/>
<path d="M11.9769 8.53319C11.961 8.45585 12.0127 8.38068 12.0924 8.36533C12.1721 8.34993 12.2494 8.40013 12.2652 8.47751C12.2991 8.64253 12.0106 8.69822 11.9769 8.53319Z" fill="#FFE15A"/>
<path d="M14.1131 5.79155C14.0335 5.80695 13.9561 5.75674 13.9403 5.67936C13.9244 5.60198 13.9761 5.52686 14.0558 5.5115C14.2192 5.47989 14.2765 5.76002 14.1131 5.79155Z" fill="#FFE15A"/>
<path d="M9.15423 6.45853C9.23385 6.44313 9.31124 6.49333 9.32705 6.57071C9.34291 6.64809 9.29122 6.72321 9.21155 6.73857C9.04813 6.77018 8.9908 6.49005 9.15423 6.45853Z" fill="#FFE15A"/>
<path d="M13.1441 4.18638C13.099 4.25195 13.0077 4.26956 12.9402 4.22574C12.8727 4.18192 12.8546 4.09327 12.8997 4.0277C12.901 4.02589 12.9024 4.02396 12.9041 4.02192C13.0098 3.89257 13.2387 4.04868 13.1441 4.18638Z" fill="#FFE15A"/>
<path d="M10.1232 8.06363C10.1682 7.99807 10.2595 7.98046 10.327 8.02428C10.3945 8.06806 10.4127 8.15675 10.3676 8.22231C10.3663 8.22413 10.3649 8.22606 10.3632 8.22809C10.2575 8.35744 10.0286 8.20133 10.1232 8.06363Z" fill="#FFE15A"/>
<path d="M13.6294 7.59205C13.5619 7.54827 13.5438 7.45958 13.5889 7.39402C13.634 7.32845 13.7253 7.31084 13.7928 7.35466C13.9323 7.44512 13.782 7.67466 13.6357 7.59575C13.6334 7.59449 13.6313 7.59326 13.6294 7.59205Z" fill="#FFE15A"/>
<path d="M9.63761 4.65793C9.70511 4.70171 9.72324 4.7904 9.67813 4.85597C9.63305 4.92153 9.54174 4.93915 9.47424 4.89532C9.33482 4.80481 9.48502 4.57531 9.63132 4.65424C9.63364 4.65549 9.63574 4.65673 9.63761 4.65793Z" fill="#FFE15A"/>
<path d="M10.3676 4.02772C10.4126 4.09329 10.3945 4.18194 10.327 4.22576C10.2596 4.26958 10.1683 4.25193 10.1232 4.1864C10.0285 4.04874 10.2574 3.89264 10.3632 4.02193C10.3648 4.02397 10.3663 4.0259 10.3676 4.02772Z" fill="#FFE15A"/>
<path d="M12.8997 8.22234C12.8546 8.15678 12.8727 8.06813 12.9402 8.02431C13.0077 7.98053 13.099 7.99814 13.1441 8.06367C13.2387 8.20132 13.0099 8.35739 12.9041 8.22813C12.9024 8.22609 12.9009 8.22416 12.8997 8.22234Z" fill="#FFE15A"/>
<path d="M13.7928 4.89532C13.7253 4.9391 13.634 4.92149 13.5889 4.85597C13.5438 4.7904 13.562 4.70176 13.6294 4.65793C13.6313 4.65673 13.6334 4.6555 13.6357 4.65425C13.782 4.57532 13.9323 4.80487 13.7928 4.89532Z" fill="#FFE15A"/>
<path d="M9.47446 7.35469C9.54196 7.31091 9.63323 7.32853 9.67834 7.39405C9.72342 7.45962 9.70528 7.54826 9.63782 7.59208C9.63596 7.59329 9.63387 7.59452 9.63155 7.59577C9.48525 7.6747 9.33498 7.44515 9.47446 7.35469Z" fill="#FFE15A"/>
<path d="M12.2652 3.77249C12.2494 3.84982 12.172 3.90007 12.0924 3.88467C12.0128 3.86927 11.961 3.79415 11.9769 3.71681C12.0107 3.55183 12.299 3.60749 12.2652 3.77249Z" fill="#FFE15A"/>
<path d="M11.002 8.47751C11.0179 8.40017 11.0952 8.34992 11.1748 8.36532C11.2544 8.38072 11.3062 8.45585 11.2903 8.53318C11.2565 8.69817 10.9683 8.64251 11.002 8.47751Z" fill="#FFE15A"/>
<path d="M14.0558 6.73857C13.9761 6.72317 13.9244 6.64804 13.9403 6.57071C13.9561 6.49337 14.0334 6.44312 14.1131 6.45852C14.2765 6.49013 14.2192 6.77009 14.0558 6.73857Z" fill="#FFE15A"/>
<path d="M9.21155 5.51149C9.29117 5.52689 9.34291 5.60202 9.32705 5.67935C9.3112 5.75669 9.23385 5.80694 9.15423 5.79154C8.99084 5.75993 9.04815 5.47997 9.21155 5.51149Z" fill="#FFE15A"/>
<path d="M16.2433 6.62579C16.1859 6.60234 16.1203 6.62921 16.0964 6.68463C16.0964 6.68464 16.0964 6.68466 16.0964 6.68467C16.0964 6.68472 16.0963 6.68506 16.0963 6.68511C16.0957 6.68654 16.0935 6.69157 16.0899 6.69983C16.0332 6.82859 15.8608 6.75041 15.8994 6.61509C15.9446 6.45638 15.9742 6.34803 15.9787 6.3316C15.9945 6.27363 15.9591 6.21412 15.8996 6.19838C15.8399 6.18282 15.7785 6.21654 15.7618 6.27426C15.7343 6.36996 15.6966 6.47644 15.6528 6.5874C15.6018 6.71655 15.4113 6.66912 15.4134 6.5303C15.4143 6.47125 15.3667 6.42242 15.3059 6.41962C15.2487 6.42133 15.1935 6.46186 15.189 6.52087C15.0952 7.77393 14.2535 8.57565 13.6273 9.004C13.2044 9.29326 12.6897 9.38703 12.1949 9.51996C12.1285 9.5378 12.0615 9.55773 11.9957 9.57994C11.9665 9.58979 11.94 9.59965 11.9146 9.60949C11.8859 9.62061 11.854 9.61781 11.8232 9.61959C10.5641 9.70807 9.5602 9.20641 8.83867 8.13165C8.29352 7.31956 8.12255 6.46716 8.12088 6.45864C8.10936 6.39938 8.05092 6.36119 7.98965 6.37167C7.92863 6.38294 7.88854 6.43986 7.9001 6.49913C7.91943 6.59903 7.80691 6.64739 7.77069 6.5523C7.71512 6.40639 7.67404 6.27686 7.64942 6.17977C7.64805 6.17443 7.64452 6.17038 7.64246 6.16545C7.63928 6.1579 7.63662 6.1503 7.63193 6.14375C7.62863 6.13912 7.62429 6.13574 7.62038 6.13169C7.61423 6.12539 7.60834 6.11921 7.60082 6.11449C7.59653 6.11178 7.59172 6.11045 7.58703 6.10832C7.57874 6.10456 7.57062 6.10085 7.56138 6.09914C7.55498 6.09793 7.54845 6.09872 7.54179 6.09859C7.53504 6.09851 7.52868 6.09684 7.52176 6.09801C7.52026 6.09826 7.5191 6.09926 7.51759 6.09959C7.51613 6.09989 7.51476 6.09943 7.5133 6.09972C7.50728 6.10114 7.50268 6.10481 7.49718 6.10711C7.49018 6.11007 7.483 6.11228 7.47686 6.11641C7.4708 6.12046 7.46629 6.12572 7.46126 6.13077C7.45623 6.13578 7.45099 6.1402 7.44704 6.146C7.44304 6.15189 7.4409 6.15852 7.43806 6.16508C7.43535 6.17146 7.43222 6.17747 7.4308 6.18436C7.42934 6.19141 7.42998 6.19867 7.43002 6.20606C7.43002 6.21195 7.42835 6.21758 7.42942 6.22359C7.42984 6.22612 7.43067 6.22865 7.43115 6.2311C7.43117 6.23121 7.43118 6.23133 7.43118 6.23144C7.43118 6.2316 7.43121 6.23177 7.43125 6.23193C7.43137 6.23235 7.43151 6.23285 7.43161 6.23327C7.44796 6.32682 7.46962 6.42118 7.49515 6.51487C7.53539 6.66262 7.36557 6.7573 7.30945 6.61482C7.30743 6.6096 7.30335 6.60597 7.3006 6.6013C7.29643 6.59408 7.29278 6.58669 7.28715 6.58072C7.28316 6.57646 7.2783 6.57371 7.27375 6.57016C7.26691 6.56482 7.26043 6.55943 7.25252 6.55576C7.24745 6.55342 7.24195 6.55267 7.23658 6.55105C7.22829 6.54862 7.22025 6.54595 7.21144 6.54541C7.20452 6.54495 7.19765 6.54666 7.19064 6.54754C7.18416 6.54833 7.17775 6.54754 7.17131 6.5495C7.17006 6.54988 7.1692 6.55084 7.16804 6.55125C7.16684 6.55163 7.16564 6.55138 7.16443 6.55184C7.15833 6.55409 7.15399 6.55847 7.14854 6.5616C7.14213 6.56528 7.1353 6.56832 7.12984 6.57308C7.12426 6.57796 7.12039 6.58402 7.11601 6.58982C7.11184 6.59529 7.1072 6.60017 7.10411 6.60626C7.10088 6.61265 7.09968 6.61958 7.09783 6.62646C7.09598 6.63318 7.09354 6.63944 7.09306 6.64649C7.09255 6.65355 7.09435 6.6606 7.0953 6.66774C7.09611 6.67391 7.09525 6.68005 7.09723 6.68614C7.17193 6.92016 7.31071 7.1813 7.45993 7.4223C7.5073 7.4988 7.42912 7.56797 7.36995 7.50019C7.36553 7.4951 7.36119 7.48997 7.35676 7.48487C7.31715 7.43859 7.24715 7.432 7.19915 7.46972C7.15133 7.50766 7.14381 7.57594 7.18248 7.62256C7.18459 7.62515 7.19301 7.63537 7.2071 7.65136C7.31708 7.77846 7.43348 7.90002 7.54731 8.01181C7.58229 8.04616 7.54347 8.10612 7.49817 8.08736C7.44627 8.06562 7.38525 8.08524 7.35685 8.13319C7.3284 8.18119 7.34125 8.24191 7.3868 8.27517C7.40683 8.28962 7.73797 8.52989 8.05913 8.70365C8.08661 8.71852 8.07749 8.75528 8.04632 8.75296C7.99356 8.74803 7.94165 8.78472 7.9288 8.83672C7.91617 8.88893 7.94427 8.94227 7.99532 8.96272C8.00176 8.96529 8.06315 8.98988 8.14882 9.02117C8.18063 9.03279 8.18656 9.09132 8.17648 9.12365C8.16135 9.17207 8.18262 9.22453 8.22782 9.24965C8.23906 9.25598 8.3842 9.33683 8.56826 9.41235C8.58202 9.418 8.5871 9.43491 8.58227 9.44898C8.56689 9.4948 8.58447 9.54514 8.62541 9.57264C8.65953 9.59543 9.42287 10.0986 10.3144 10.0986C10.3729 10.0986 10.432 10.0965 10.4915 10.0918C10.5533 10.0871 10.5995 10.0344 10.5946 9.9743C10.5896 9.91416 10.536 9.86875 10.4735 9.8743C9.95165 9.91565 9.44755 9.74109 9.12161 9.59081C9.09847 9.58014 9.10205 9.54596 9.12583 9.53679C9.17533 9.51717 9.20386 9.46663 9.19419 9.41567C9.18452 9.36476 9.13932 9.3274 9.08587 9.32632C8.98396 9.32429 8.85136 9.28616 8.72406 9.23801C8.68296 9.22246 8.68104 9.16476 8.71573 9.1378C8.74955 9.1103 8.76382 9.06639 8.7523 9.02503C8.7407 8.98388 8.70529 8.95296 8.66189 8.94615C8.64928 8.94412 8.63583 8.94159 8.62173 8.93861C8.57303 8.92834 8.56561 8.85918 8.58859 8.81502C8.60419 8.78476 8.60453 8.74933 8.58958 8.71886C8.57454 8.68839 8.54592 8.6664 8.51185 8.65935C8.48981 8.65472 8.46558 8.64769 8.43967 8.63871C8.42727 8.63442 8.42406 8.61844 8.43072 8.60714C8.45934 8.56002 8.44752 8.49946 8.40309 8.46557C8.40109 8.46409 8.33594 8.41444 8.23332 8.3298C8.21031 8.31083 8.21701 8.27088 8.23436 8.24663C8.26267 8.20698 8.26074 8.15389 8.22963 8.11633C8.2278 8.11413 8.18039 8.05624 8.1078 7.96169C8.09296 7.94237 8.11787 7.91712 8.13854 7.93002C8.15723 7.94154 8.17837 7.9473 8.19934 7.9473C8.22778 7.9473 8.25584 7.93687 8.27745 7.91658C8.29026 7.90457 8.31127 7.90134 8.32367 7.91376C8.38436 7.97453 8.44772 8.03 8.51387 8.07818C8.53193 8.09134 8.55296 8.09926 8.56478 8.11822C8.59104 8.16035 8.6182 8.20253 8.64643 8.24471C9.23852 9.12957 10.0412 9.65795 10.9971 9.8038C11.1258 9.82344 11.1628 9.99425 11.041 10.0403C11.0096 10.0522 10.981 10.0642 10.953 10.0761C10.938 10.0825 10.9219 10.0864 10.9068 10.0924C10.8905 10.099 10.8758 10.1089 10.8598 10.1163C10.5585 10.2559 10.4318 10.3928 10.3797 10.4894C10.3262 10.5879 10.3723 10.6889 10.4376 10.7414C10.4579 10.7575 10.4837 10.7659 10.5096 10.7659C10.5273 10.7659 10.5451 10.762 10.5612 10.7541C10.5729 10.7485 10.5834 10.741 10.5924 10.7322C10.6335 10.6918 10.6537 10.6306 10.7112 10.6288C10.7558 10.6251 10.8498 10.6349 10.9594 10.6434C10.9884 10.6458 11.019 10.6482 11.0509 10.6506C11.1601 10.6588 11.2146 10.7894 11.142 10.8714C11.1419 10.8714 11.142 10.8714 11.1419 10.8714C11.1129 10.9042 11.1065 10.9507 11.1259 10.9897C11.1453 11.0289 11.1871 11.0532 11.231 11.0517C11.2534 11.0509 11.274 11.0503 11.2929 11.0497C11.3728 11.0471 11.4465 11.0951 11.524 11.1144C11.5543 11.1219 11.5844 11.1219 11.6135 11.1169C11.6932 11.1034 11.779 11.1052 11.859 11.1166C11.8771 11.119 11.8949 11.1196 11.9123 11.1189C12.0096 11.115 12.1136 11.1225 12.2111 11.1225C12.2117 11.1225 12.2123 11.1225 12.213 11.1225C12.2481 11.1224 12.2815 11.1156 12.3124 11.1051C12.3905 11.0783 12.4784 11.0752 12.561 11.0788C12.5791 11.0794 12.5965 11.0784 12.6132 11.0761C12.7086 11.0628 12.807 11.0417 12.9017 11.0235C12.9533 11.0137 13.001 10.9942 13.0434 10.9698C13.1038 10.9352 13.1795 10.9327 13.2491 10.9293C13.38 10.9248 13.5087 10.8585 13.6372 10.8336C13.7123 10.8191 13.7709 10.7878 13.8126 10.7398C13.873 10.6703 13.9449 10.5944 14.0361 10.5808C14.3826 10.5291 14.4178 10.3216 14.421 10.2929C14.4243 10.2632 14.415 10.2336 14.3952 10.2109C14.3754 10.1881 14.3467 10.174 14.3162 10.1723L13.0101 10.096C12.9554 10.0921 12.9066 10.1277 12.894 10.1796C12.8937 10.1804 12.8715 10.261 12.8018 10.3254C12.7166 10.4045 12.584 10.4496 12.4373 10.4754C12.4143 10.4795 12.3942 10.4603 12.3857 10.4386C12.3633 10.3823 12.2981 10.355 12.2403 10.3762C12.0209 10.4589 11.6908 10.4658 11.3914 10.4531C11.3211 10.4501 11.2964 10.3654 11.3585 10.3323C11.4011 10.3095 11.4239 10.2628 11.4149 10.2164C11.4072 10.1766 11.4052 10.118 11.4409 10.0989C11.4983 10.0682 11.5498 10.0382 11.5996 10.0087C11.7278 9.9324 11.8489 9.86049 12.0695 9.78612C12.4954 9.64242 12.9882 9.59873 12.9931 9.59827C13.0043 9.59739 13.0153 9.59464 13.0257 9.59059C13.0428 9.58371 14.3634 9.04634 15.0368 7.811C15.0446 7.79661 15.0653 7.80427 15.0603 7.81988C15.0432 7.87364 15.0709 7.93098 15.1242 7.95268C15.1539 7.96482 15.2081 8.02137 15.1952 8.05071C15.1731 8.10099 15.1527 8.1418 15.1347 8.17079C15.1036 8.22092 15.1186 8.28594 15.1687 8.31833C15.1851 8.32873 15.1938 8.35123 15.1825 8.36699C15.1395 8.42689 15.096 8.48381 15.0527 8.53665C14.9983 8.60293 15.0096 8.72503 14.9474 8.78406C14.9037 8.82557 14.8643 8.86054 14.8309 8.88697C14.7686 8.93598 14.7471 9.04593 14.6722 9.07192C14.6682 9.07333 14.6643 9.07457 14.6606 9.07566C14.6059 9.09164 14.5724 9.14515 14.5827 9.19974C14.5888 9.23241 14.578 9.28154 14.5456 9.28913C14.5003 9.29977 14.4525 9.31004 14.4022 9.31973C14.3562 9.32866 14.3208 9.3643 14.3132 9.40925C14.3058 9.45424 14.3278 9.49902 14.3684 9.5216C14.4038 9.54089 14.4028 9.594 14.3646 9.60695C14.135 9.68486 13.772 9.77384 13.2265 9.82606C13.1648 9.83203 13.1196 9.88557 13.1257 9.94546C13.1317 10.0054 13.1851 10.047 13.2486 10.0435C14.4579 9.92735 14.8313 9.63337 14.8465 9.62076C14.8814 9.59238 14.8952 9.54614 14.8814 9.50394C14.8716 9.47423 14.8789 9.42389 14.9085 9.4139C15.2362 9.30353 15.3789 9.19103 15.3869 9.18454C15.4293 9.1504 15.44 9.09139 15.4121 9.04511C15.384 8.99882 15.3255 8.97879 15.2744 8.99882C15.2603 9.00407 15.2524 8.98556 15.2649 8.97713C15.5066 8.8135 15.7514 8.63073 15.8637 8.54574C15.8849 8.53043 15.9043 8.51565 15.9213 8.5018C15.9683 8.46344 15.9749 8.39558 15.9361 8.34938C15.8976 8.30334 15.8274 8.29562 15.7793 8.33252C15.7618 8.34596 15.7435 8.35981 15.7247 8.37409C15.691 8.39838 15.655 8.35577 15.6825 8.32468C15.9166 8.06015 16.1256 7.8118 16.1945 7.72957C16.2022 7.72039 16.2097 7.71125 16.2174 7.70206C16.2563 7.65515 16.2487 7.5865 16.2004 7.54877C16.152 7.51041 16.0812 7.5183 16.0425 7.56496L16.0423 7.56511C16.0422 7.56518 16.0422 7.56526 16.0422 7.56535C16.0421 7.56543 16.0421 7.56549 16.042 7.56555C16.0398 7.56807 16.0303 7.57954 16.0145 7.59852C15.9752 7.64508 15.9068 7.59589 15.9348 7.54181C16.1346 7.15661 16.2748 6.83558 16.3004 6.77637C16.3016 6.77362 16.3027 6.77087 16.3039 6.76803C16.3277 6.71281 16.3007 6.64883 16.2433 6.62579ZM10.9725 10.307C10.9747 10.306 10.977 10.3056 10.9793 10.3059C10.99 10.3073 10.9943 10.3206 10.9867 10.3283C10.9636 10.3517 10.9435 10.3767 10.9261 10.4025C10.9184 10.4139 10.9023 10.4205 10.8885 10.4194C10.8525 10.4167 10.8442 10.3704 10.8762 10.3537C10.9056 10.3385 10.9377 10.3228 10.9725 10.307Z" fill="#FFE15A"/>
</svg>
