<svg width="128" height="30" viewBox="0 0 128 30" fill="none" xmlns="http://www.w3.org/2000/svg">
<path d="M57.5659 23.5897L51.5346 16.891H49.2769V23.5897H44.7293V0H49.2769V13.3654H51.5346L57.3724 6.79487H62.8876L54.7599 14.7436L63.4036 23.5897H57.5659Z" fill="#333333"/>
<path d="M82.9279 16.0256V16.5385H68.1561C68.5862 19.4017 70.4461 20.8333 73.7359 20.8333C75.8645 20.8333 77.3697 20.1496 78.2513 18.782L82.6699 19.0064C82.1323 20.5876 81.1003 21.8162 79.5736 22.6923C78.047 23.547 76.1011 23.9743 73.7359 23.9743C70.5966 23.9743 68.1131 23.2479 66.2855 21.7949C64.4793 20.3205 63.5762 18.1196 63.5762 15.1923C63.5762 12.2863 64.4686 10.0961 66.2532 8.62179C68.0594 7.14743 70.4783 6.41025 73.5101 6.41025C79.7886 6.41025 82.9279 9.61538 82.9279 16.0256ZM73.5101 9.55128C72.0695 9.55128 70.8761 9.89316 69.93 10.5769C69.0055 11.2607 68.4249 12.297 68.1884 13.6859H78.4448C78.3373 12.4038 77.8535 11.3996 76.9934 10.6731C76.1333 9.92521 74.9722 9.55128 73.5101 9.55128Z" fill="#333333"/>
<path d="M104.661 16.0256V16.5385H89.889C90.319 19.4017 92.1789 20.8333 95.4687 20.8333C97.5974 20.8333 99.1025 20.1496 99.9841 18.782L104.403 19.0064C103.865 20.5876 102.833 21.8162 101.306 22.6923C99.7798 23.547 97.8339 23.9743 95.4687 23.9743C92.3294 23.9743 89.846 23.2479 88.0183 21.7949C86.2121 20.3205 85.3091 18.1196 85.3091 15.1923C85.3091 12.2863 86.2014 10.0961 87.986 8.62179C89.7922 7.14743 92.2112 6.41025 95.2429 6.41025C101.521 6.41025 104.661 9.61538 104.661 16.0256ZM95.2429 9.55128C93.8023 9.55128 92.6089 9.89316 91.6629 10.5769C90.7383 11.2607 90.1577 12.297 89.9212 13.6859H100.178C100.07 12.4038 99.5863 11.3996 98.7262 10.6731C97.8661 9.92521 96.705 9.55128 95.2429 9.55128Z" fill="#333333"/>
<path d="M118.846 6.41025C121.319 6.41025 123.33 7.20085 124.878 8.78205C126.426 10.3419 127.2 12.4786 127.2 15.1923C127.2 17.906 126.426 20.0534 124.878 21.6346C123.33 23.1944 121.33 23.9743 118.879 23.9743C115.997 23.9743 113.847 22.938 112.428 20.8654V30H107.88V6.79487H112.106V9.93589C113.482 7.58547 115.729 6.41025 118.846 6.41025ZM113.621 19.0385C114.568 20 115.847 20.4808 117.46 20.4808C119.072 20.4808 120.352 20 121.298 19.0385C122.244 18.0769 122.717 16.7949 122.717 15.1923C122.717 13.5897 122.244 12.3077 121.298 11.3461C120.352 10.3846 119.072 9.90384 117.46 9.90384C115.847 9.90384 114.568 10.3846 113.621 11.3461C112.697 12.3077 112.235 13.5897 112.235 15.1923C112.235 16.7949 112.697 18.0769 113.621 19.0385Z" fill="#333333"/>
<path d="M13.4172 6.38461H17.9648V23.1795H13.7397V19.5897C12.4066 22.2393 10.0951 23.5641 6.80534 23.5641C4.61215 23.5641 2.92425 22.9338 1.74165 21.6731C0.58055 20.4124 0 18.6068 0 16.2564V6.38461H4.54764V14.8782C4.54764 18.1902 5.89151 19.8461 8.57924 19.8461C10.1274 19.8461 11.3207 19.312 12.1593 18.2436C12.9979 17.1538 13.4172 15.7543 13.4172 14.0449V6.38461Z" fill="#005FF9"/>
<path d="M33.049 6C35.5217 6 37.5322 6.7906 39.0803 8.37179C40.6284 9.93162 41.4025 12.0684 41.4025 14.782C41.4025 17.4957 40.6284 19.6432 39.0803 21.2243C37.5322 22.7842 35.5325 23.5641 33.0813 23.5641C30.2 23.5641 28.0498 22.5278 26.6307 20.4551V29.5897H22.0831V6.38461H26.3082V9.52564C27.6843 7.17521 29.9313 6 33.049 6ZM27.8241 18.6282C28.7702 19.5897 30.0495 20.0705 31.6622 20.0705C33.2748 20.0705 34.5541 19.5897 35.5002 18.6282C36.4463 17.6667 36.9194 16.3846 36.9194 14.782C36.9194 13.1795 36.4463 11.8974 35.5002 10.9359C34.5541 9.97436 33.2748 9.49359 31.6622 9.49359C30.0495 9.49359 28.7702 9.97436 27.8241 10.9359C26.8995 11.8974 26.4372 13.1795 26.4372 14.782C26.4372 16.3846 26.8995 17.6667 27.8241 18.6282Z" fill="#005FF9"/>
</svg>
