<svg width="18" height="14" viewBox="0 0 18 14" fill="none" xmlns="http://www.w3.org/2000/svg">
<path d="M16.418 0H1.58203C1.3385 0 1.11051 0.0598712 0.904251 0.158555L8.96484 8.21914L10.7715 6.48288C10.7715 6.48288 10.7716 6.48271 10.7717 6.48264C10.7717 6.48257 10.7718 6.4825 10.7718 6.4825L17.096 0.158695C16.8897 0.0599414 16.6616 0 16.418 0Z" fill="black"/>
<path d="M17.8417 0.904541L11.8903 6.85558L17.8414 12.8067C17.9401 12.6005 18 12.3725 18 12.1289V1.58207C18 1.33869 17.9403 1.11073 17.8417 0.904541Z" fill="black"/>
<path d="M0.158555 0.904297C0.0598711 1.11056 0 1.33855 0 1.58207V12.1289C0 12.3723 0.0598008 12.6004 0.158414 12.8066L6.10977 6.85551L0.158555 0.904297Z" fill="black"/>
<path d="M11.1446 7.60115L9.33771 9.33762C9.2347 9.44062 9.09977 9.49213 8.96488 9.49213C8.82998 9.49213 8.69502 9.44062 8.59205 9.33762L6.85547 7.60107L0.904007 13.5521C1.1103 13.6509 1.33843 13.7108 1.58203 13.7108H16.418C16.6615 13.7108 16.8895 13.651 17.0957 13.5523L11.1446 7.60115Z" fill="black"/>
</svg>
