<svg width="15" height="14" viewBox="0 0 15 14" fill="none" xmlns="http://www.w3.org/2000/svg">
<path opacity="0.4" d="M13.7496 10.08C13.7113 10.0497 10.9332 8.0472 10.1707 8.19093C9.80669 8.25533 9.59856 8.5036 9.18089 9.0006C9.11369 9.08087 8.95222 9.27313 8.82669 9.40987C8.56274 9.32378 8.30527 9.21898 8.05622 9.09627C6.7708 8.47047 5.73222 7.43189 5.10642 6.14647C4.98363 5.89746 4.87883 5.63998 4.79282 5.376C4.93002 5.25 5.12229 5.08853 5.20442 5.01947C5.69909 4.60413 5.94782 4.396 6.01222 4.03107C6.14429 3.27507 4.14322 0.477867 4.12222 0.452667C4.03143 0.322966 3.91295 0.215069 3.77534 0.136781C3.63773 0.0584937 3.48444 0.0117731 3.32656 0C2.51549 0 0.19989 3.00393 0.19989 3.5098C0.19989 3.5392 0.242357 6.52773 3.92762 10.2765C7.67262 13.9575 10.6607 14 10.6901 14C11.1964 14 14.1999 11.6844 14.1999 10.8733C14.1882 10.716 14.1418 10.5632 14.0639 10.426C13.986 10.2888 13.8787 10.1706 13.7496 10.08Z" fill="black"/>
</svg>
