<svg width="18" height="18" viewBox="0 0 18 18" fill="none" xmlns="http://www.w3.org/2000/svg">
<path fill-rule="evenodd" clip-rule="evenodd" d="M15.3774 2.61584C13.6853 0.929883 11.435 0.000988768 9.03764 0C4.09762 0 0.0771637 4.00111 0.0751766 8.91881C0.0745143 10.4908 0.487158 12.0254 1.27149 13.3781L0 18L4.75114 16.7596C6.06027 17.4703 7.53411 17.8449 9.034 17.8453H9.03775C13.9772 17.8453 17.9981 13.8439 18 8.92595C18.001 6.54258 17.0696 4.3017 15.3774 2.61584ZM9.03764 16.339H9.03455C7.69793 16.3384 6.38703 15.9809 5.24316 15.3056L4.97126 15.1449L2.15186 15.881L2.9044 13.1453L2.72722 12.8648C1.98153 11.6844 1.58776 10.3201 1.58842 8.91936C1.58997 4.8319 4.93174 1.50645 9.04062 1.50645C11.0303 1.5071 12.9007 2.27922 14.3071 3.68053C15.7135 5.08184 16.4875 6.94446 16.4869 8.9254C16.4851 13.0132 13.1435 16.339 9.03764 16.339ZM13.1237 10.7866C12.8998 10.675 11.7988 10.136 11.5934 10.0615C11.3883 9.98712 11.2389 9.9501 11.0897 10.1731C10.9404 10.3961 10.5113 10.8982 10.3806 11.0469C10.2499 11.1956 10.1194 11.2143 9.89539 11.1027C9.6714 10.9912 8.94988 10.7557 8.09446 9.99646C7.4288 9.40551 6.97939 8.67568 6.84869 8.45266C6.71821 8.22942 6.84759 8.12043 6.94694 7.99783C7.18936 7.69823 7.43211 7.38413 7.50673 7.23549C7.58147 7.08673 7.54405 6.95654 7.48797 6.84503C7.43211 6.73352 6.98425 5.63654 6.79769 5.19016C6.61576 4.75576 6.4313 4.81443 6.29375 4.80762C6.16327 4.80114 6.01391 4.79982 5.86455 4.79982C5.7153 4.79982 5.47266 4.85552 5.26733 5.07876C5.06211 5.30189 4.48366 5.84099 4.48366 6.93798C4.48366 8.03496 5.2861 9.0947 5.39804 9.24346C5.50997 9.39221 6.97719 11.6433 9.22354 12.6086C9.75784 12.8384 10.1749 12.9754 10.5002 13.0781C11.0367 13.2478 11.5248 13.2238 11.9107 13.1665C12.341 13.1024 13.2355 12.6272 13.4223 12.1067C13.6088 11.5861 13.6088 11.1399 13.5528 11.0469C13.4969 10.9539 13.3475 10.8982 13.1237 10.7866Z" fill="black"/>
</svg>
